<?xml version="1.0" standalone="no"?>
<!DOCTYPE svg PUBLIC "-//W3C//DTD SVG 20010904//EN"
 "http://www.w3.org/TR/2001/REC-SVG-20010904/DTD/svg10.dtd">
<svg version="1.0" xmlns="http://www.w3.org/2000/svg"
 width="1350.000000pt" height="1128.000000pt" viewBox="0 0 1350.000000 1128.000000"
 preserveAspectRatio="xMidYMid meet">
<metadata>
Created by potrace 1.10, written by Peter Selinger 2001-2011
</metadata>
<g transform="translate(0.000000,1128.000000) scale(0.100000,-0.100000)"
fill="#000000" stroke="none">
<path d="M6690 11266 c0 -10 -35 -15 -162 -21 -90 -4 -197 -13 -238 -21 -41
-8 -97 -14 -124 -14 -26 0 -78 -6 -115 -14 -86 -19 -186 -35 -287 -46 -45 -5
-93 -14 -108 -20 -15 -5 -41 -10 -58 -10 -17 0 -54 -6 -82 -14 -74 -21 -153
-38 -216 -46 -30 -4 -77 -13 -105 -19 -27 -7 -77 -20 -110 -28 -33 -8 -82 -21
-110 -28 -27 -8 -77 -22 -110 -31 -33 -9 -78 -22 -100 -29 -22 -7 -69 -20
-105 -29 -36 -10 -78 -22 -95 -27 -16 -6 -43 -15 -60 -19 -97 -29 -140 -43
-230 -75 -55 -20 -112 -40 -126 -44 -14 -5 -34 -13 -45 -19 -10 -5 -37 -17
-59 -25 -85 -31 -131 -49 -163 -63 -97 -41 -171 -73 -193 -84 -9 -5 -60 -27
-113 -50 -91 -38 -127 -56 -246 -122 -25 -14 -72 -40 -105 -58 -117 -63 -175
-105 -190 -137 -19 -40 -19 -97 0 -113 8 -7 15 -29 15 -50 0 -35 -6 -42 -72
-96 -40 -33 -86 -72 -103 -89 -17 -16 -47 -44 -66 -61 -52 -47 -212 -244 -238
-293 -7 -14 -24 -37 -36 -51 -22 -26 -145 -208 -145 -216 0 -2 -12 -23 -27
-47 -15 -23 -33 -53 -40 -66 -32 -59 -120 -150 -167 -172 -47 -23 -58 -24
-267 -23 -125 1 -231 6 -250 13 -19 6 -70 15 -114 21 -44 5 -111 15 -150 21
-66 10 -70 9 -88 -12 -19 -24 -17 -37 18 -115 57 -121 53 24 53 -2052 0 -1054
0 -2079 1 -2277 0 -198 0 -637 0 -975 -2 -612 1 -691 27 -742 8 -15 14 -36 14
-47 0 -10 14 -49 30 -86 17 -37 30 -72 30 -78 0 -7 11 -32 25 -57 13 -25 35
-67 49 -94 14 -27 29 -52 33 -55 5 -3 26 -31 45 -61 96 -145 211 -255 397
-379 143 -96 208 -129 320 -163 19 -5 72 -28 118 -49 46 -21 87 -39 92 -39 36
0 257 -202 349 -320 59 -75 152 -269 159 -332 8 -63 35 -97 86 -105 32 -5 36
-3 31 11 -4 10 -1 16 8 16 8 0 20 -16 27 -35 9 -25 20 -37 39 -41 15 -4 34
-12 42 -19 8 -6 39 -22 68 -34 29 -12 73 -33 97 -47 24 -13 49 -24 55 -24 6 0
61 -24 123 -54 62 -29 123 -57 137 -60 14 -4 39 -13 55 -21 17 -7 50 -21 75
-30 25 -10 59 -24 77 -31 17 -8 36 -14 42 -14 6 0 25 -6 43 -14 44 -18 106
-38 148 -47 19 -4 60 -17 90 -29 30 -12 71 -26 90 -30 56 -13 196 -50 395
-105 28 -8 79 -21 115 -29 36 -8 94 -22 130 -30 36 -8 103 -22 150 -31 47 -9
106 -22 131 -30 26 -8 57 -15 70 -15 13 0 57 -6 99 -14 199 -38 248 -46 280
-46 19 0 70 -7 113 -15 43 -8 102 -15 130 -15 29 0 79 -7 112 -15 33 -8 94
-15 135 -15 41 0 94 -5 117 -10 89 -21 439 -34 913 -34 272 -1 529 0 570 2 41
1 89 1 105 0 34 -3 344 11 390 18 17 2 50 6 75 8 172 14 293 27 331 35 24 5
76 12 114 15 73 7 149 18 275 41 77 14 192 33 245 41 46 7 183 34 250 49 33 8
79 17 102 20 24 4 45 11 49 16 3 5 17 9 32 9 15 0 47 6 72 14 105 33 257 74
302 81 20 3 39 13 42 21 5 12 15 15 39 11 17 -2 46 1 62 8 17 7 59 21 95 30
36 9 80 23 98 31 18 8 39 14 47 14 8 0 29 6 47 14 18 8 67 25 108 37 41 12 82
26 90 30 8 4 34 14 58 23 23 9 61 23 85 32 23 9 60 23 82 31 22 8 53 21 68 29
16 8 35 14 42 14 7 0 26 6 42 14 15 7 45 21 66 30 74 31 104 45 260 122 167
81 207 114 207 164 0 16 7 46 16 67 9 21 24 54 32 73 65 151 146 268 254 364
29 26 64 58 78 70 40 35 111 80 160 100 25 10 59 24 75 31 29 12 73 29 158 61
97 37 307 151 337 184 3 3 31 25 63 49 99 75 287 296 333 391 15 30 31 62 35
70 5 8 12 22 15 30 6 18 28 68 48 113 43 94 74 235 87 387 12 154 10 566 -3
593 -6 11 -6 23 0 30 10 13 17 849 14 1622 -2 242 -2 928 -2 1525 1 597 1
1240 1 1430 -1 531 1 577 28 628 13 23 29 42 37 42 9 0 14 11 14 33 0 30 -4
35 -37 46 -28 9 -45 10 -67 1 -16 -6 -88 -15 -160 -21 -72 -5 -147 -15 -166
-22 -22 -7 -104 -12 -225 -12 -177 0 -193 2 -236 23 -57 28 -123 84 -142 120
-7 15 -29 54 -47 87 -18 33 -36 72 -40 87 -10 34 -106 184 -196 306 -74 100
-252 289 -339 358 -142 113 -151 129 -115 197 11 20 20 46 20 56 0 30 -46 77
-103 106 -29 15 -61 32 -72 38 -70 41 -141 84 -164 99 -35 22 -171 88 -366
178 -95 44 -123 56 -255 105 -105 39 -127 48 -158 61 -18 8 -39 14 -47 14 -8
0 -39 12 -68 26 -28 14 -68 30 -87 35 -19 4 -69 19 -110 33 -88 30 -238 76
-330 101 -36 10 -83 23 -105 30 -38 12 -92 27 -227 61 -35 8 -86 22 -114 30
-28 8 -59 14 -69 14 -10 0 -41 6 -69 14 -69 19 -167 38 -246 47 -80 9 -193 26
-285 44 -38 8 -97 19 -130 25 -90 15 -378 40 -580 49 -200 10 -272 19 -240 32
11 4 -262 8 -607 8 -526 1 -628 -1 -628 -13z m1300 -92 c47 -3 112 -7 145 -8
185 -8 431 -33 606 -62 48 -8 104 -14 124 -14 20 0 67 -6 104 -14 36 -8 111
-22 166 -31 96 -16 145 -26 285 -58 36 -9 99 -23 140 -32 97 -21 203 -50 450
-120 25 -7 72 -21 105 -30 33 -10 76 -23 95 -30 19 -7 82 -27 140 -45 114 -35
136 -42 298 -104 23 -9 59 -22 80 -30 61 -23 194 -77 237 -96 403 -181 665
-324 680 -371 3 -9 -6 -37 -20 -62 -42 -76 -42 -76 114 -201 184 -147 401
-399 505 -586 11 -19 30 -53 42 -75 13 -22 35 -62 49 -90 85 -166 157 -236
292 -287 49 -18 79 -22 193 -22 74 0 164 6 200 13 36 7 103 17 150 22 47 4 96
11 110 14 47 11 49 -8 51 -339 1 -271 2 -307 17 -315 12 -7 13 -13 5 -23 -5
-7 -13 -24 -16 -38 -3 -14 -7 -1145 -8 -2515 -1 -2529 -4 -2710 -38 -2820 -5
-16 -17 -57 -26 -90 -18 -63 -26 -85 -69 -177 -14 -31 -31 -67 -36 -80 -57
-126 -245 -340 -369 -420 -36 -23 -68 -45 -71 -49 -4 -6 -192 -98 -230 -113
-8 -3 -22 -10 -30 -15 -8 -5 -35 -17 -60 -26 -212 -81 -318 -145 -434 -261
-142 -143 -174 -185 -239 -319 -55 -113 -67 -144 -67 -174 0 -35 -29 -73 -72
-95 -18 -9 -48 -26 -66 -37 -18 -10 -60 -31 -93 -44 -33 -14 -92 -41 -132 -59
-112 -52 -172 -78 -282 -119 -22 -8 -59 -22 -82 -31 -24 -9 -62 -23 -85 -32
-71 -27 -110 -41 -168 -59 -30 -9 -64 -21 -75 -26 -36 -15 -109 -40 -145 -49
-19 -4 -66 -18 -105 -30 -244 -74 -323 -96 -400 -112 -27 -6 -58 -14 -69 -20
-10 -5 -39 -13 -65 -18 -118 -21 -168 -31 -186 -40 -11 -5 -54 -14 -95 -20
-41 -5 -106 -17 -145 -25 -38 -9 -82 -14 -97 -11 -16 3 -31 0 -39 -10 -7 -9
-25 -14 -43 -13 -17 2 -37 0 -44 -5 -7 -4 -20 -5 -29 -2 -8 4 -22 1 -31 -6 -8
-7 -36 -14 -61 -14 -25 -1 -58 -6 -73 -12 -14 -6 -71 -16 -125 -21 -54 -6
-143 -15 -198 -21 -55 -5 -134 -15 -175 -21 -41 -5 -105 -11 -142 -11 -38 -1
-68 -4 -68 -7 0 -3 -42 -6 -92 -5 -51 1 -132 -5 -180 -13 -47 -7 -108 -13
-135 -12 -26 1 -237 1 -468 1 -406 -1 -672 4 -745 13 -19 2 -82 7 -140 10 -58
3 -139 10 -180 16 -41 5 -120 14 -175 19 -55 5 -111 12 -125 15 -23 5 -176 25
-335 45 -38 4 -83 13 -98 19 -16 6 -45 11 -65 11 -45 0 -168 23 -325 61 -65
16 -128 29 -141 29 -13 0 -46 6 -72 14 -131 39 -244 69 -286 76 -26 5 -55 13
-65 18 -10 5 -38 13 -63 17 -24 4 -51 11 -60 15 -8 4 -35 13 -60 19 -25 7 -67
19 -95 27 -61 19 -140 43 -180 54 -30 9 -56 18 -165 60 -30 12 -71 26 -90 32
-19 5 -39 14 -45 19 -5 5 -15 9 -23 9 -8 0 -28 6 -45 14 -30 13 -235 97 -267
110 -8 3 -22 10 -30 14 -8 5 -31 16 -50 25 -127 57 -330 159 -344 172 -9 10
-16 33 -16 58 0 23 -7 51 -15 61 -8 11 -15 26 -15 34 0 8 -17 44 -38 80 -20
35 -42 73 -48 84 -29 49 -144 185 -206 242 -111 103 -275 203 -428 261 -115
43 -309 139 -340 168 -14 13 -50 39 -80 59 -97 64 -267 254 -337 373 -19 33
-49 97 -68 145 -10 25 -24 59 -31 77 -8 17 -14 39 -14 48 0 9 -4 24 -10 34 -5
10 -14 47 -20 82 -7 35 -16 87 -21 114 -13 74 -14 5904 0 5918 10 10 82 1 196
-23 75 -17 300 -31 375 -25 93 8 168 34 248 85 26 17 92 101 122 157 12 21 31
54 42 73 11 19 32 57 47 83 54 99 89 152 191 287 109 144 246 285 423 433 63
53 71 81 41 138 -25 50 -15 89 31 120 32 21 164 92 334 179 61 31 233 108 311
140 30 12 69 28 85 35 17 7 50 21 75 30 25 9 54 22 64 27 11 6 31 14 45 19 28
8 74 25 161 59 30 12 69 25 85 30 28 8 53 16 135 45 19 7 62 21 95 30 33 10
75 24 93 31 18 8 40 14 50 14 9 0 34 6 57 14 42 15 127 39 210 61 28 8 75 21
106 29 31 9 64 16 73 16 9 0 38 6 64 14 26 8 83 22 127 31 44 9 105 23 136 31
30 8 67 14 82 14 15 0 53 6 85 14 79 20 231 46 267 46 17 0 65 7 108 15 43 8
100 15 125 15 26 1 74 7 107 15 33 8 98 15 145 15 47 0 114 5 150 11 36 6 173
15 305 19 255 8 1012 4 1155 -6z"/>
<path d="M6890 11080 c-325 -18 -488 -30 -580 -40 -136 -15 -317 -40 -375 -51
-27 -5 -81 -13 -120 -18 -68 -10 -117 -18 -260 -46 -38 -8 -106 -21 -150 -30
-83 -17 -163 -36 -251 -61 -28 -8 -59 -14 -69 -14 -9 0 -38 -7 -64 -14 -25 -8
-73 -22 -106 -31 -160 -44 -231 -66 -445 -136 -102 -33 -198 -66 -215 -74 -16
-7 -48 -20 -70 -28 -41 -15 -94 -35 -167 -63 -24 -9 -56 -22 -73 -29 -16 -7
-50 -21 -75 -30 -25 -10 -61 -24 -80 -33 -19 -8 -48 -21 -65 -28 -45 -19 -416
-202 -449 -222 -46 -27 -54 -47 -33 -81 9 -16 17 -46 17 -68 0 -41 -23 -72
-110 -147 -126 -109 -277 -257 -342 -334 -40 -48 -79 -93 -86 -101 -17 -18
-102 -148 -119 -181 -4 -8 -33 -59 -65 -113 -32 -54 -58 -102 -58 -105 0 -12
-90 -145 -113 -168 -88 -86 -259 -144 -431 -144 -90 0 -134 6 -281 40 -27 7
-69 14 -92 17 l-43 5 -1 -203 c0 -112 0 -1383 0 -2824 1 -2318 3 -2632 17
-2725 37 -249 112 -459 212 -592 89 -119 267 -282 387 -355 30 -18 224 -113
231 -113 8 0 61 -23 154 -67 92 -44 226 -130 300 -193 30 -26 65 -55 78 -66
13 -10 47 -48 75 -84 29 -36 58 -71 65 -79 12 -12 45 -61 77 -113 33 -53 79
-162 89 -209 12 -55 65 -93 231 -163 54 -23 99 -42 135 -58 19 -9 71 -30 115
-48 44 -17 94 -37 110 -45 17 -7 50 -20 75 -30 25 -9 56 -22 70 -27 14 -5 59
-21 100 -34 41 -13 84 -28 95 -33 20 -9 184 -59 285 -87 30 -9 69 -20 85 -26
17 -5 46 -14 65 -18 19 -4 49 -13 65 -18 59 -21 142 -42 161 -42 10 0 39 -6
64 -14 25 -8 74 -22 110 -31 36 -9 90 -23 120 -30 30 -8 91 -21 135 -30 44 -9
112 -22 150 -30 249 -51 389 -75 440 -76 22 0 60 -4 85 -10 25 -5 89 -13 142
-19 54 -5 124 -14 155 -19 97 -17 358 -40 558 -50 310 -15 759 -18 1065 -5
113 4 239 7 280 6 41 -1 111 5 155 13 44 9 134 20 200 25 66 5 152 13 190 19
39 5 131 17 205 26 127 15 223 30 365 55 33 6 83 15 110 19 28 5 73 14 100 21
71 16 157 35 250 55 44 10 100 24 124 31 25 8 59 14 76 14 17 0 35 4 40 9 6 5
33 14 60 20 55 11 133 31 210 55 28 8 70 20 95 26 25 7 53 16 62 21 10 5 34
13 55 18 102 27 195 57 235 77 14 8 35 14 46 14 12 0 23 4 27 9 3 5 20 13 38
17 17 3 45 12 62 19 16 7 48 20 70 28 22 8 58 22 80 30 47 18 187 74 230 92
83 36 103 44 135 58 75 33 186 88 201 100 18 14 49 74 49 95 0 14 13 45 53
132 44 95 134 218 231 316 115 115 181 162 336 239 71 35 97 47 172 80 82 35
188 88 243 120 33 19 67 38 75 42 75 33 266 224 337 336 31 50 107 196 116
223 3 10 16 46 27 79 12 33 31 101 43 150 l21 90 3 2880 c2 1804 0 2885 -6
2895 -9 12 -17 13 -58 1 -108 -30 -316 -53 -403 -46 -118 10 -158 23 -244 75
-73 43 -226 180 -226 200 0 5 -20 43 -45 84 -25 42 -45 79 -45 81 0 10 -98
165 -154 245 -62 87 -298 331 -441 455 -134 117 -140 130 -102 204 l26 49 -20
18 c-37 33 -191 115 -414 219 -55 25 -107 50 -115 54 -8 4 -58 25 -110 45 -52
20 -108 43 -125 51 -16 8 -42 17 -58 21 -15 3 -30 10 -33 15 -3 5 -13 9 -22 9
-9 0 -30 7 -46 15 -15 8 -33 15 -38 15 -6 0 -24 6 -41 13 -39 17 -83 32 -167
58 -36 12 -80 27 -98 35 -18 8 -40 14 -50 14 -9 0 -30 7 -46 15 -15 8 -36 15
-45 15 -9 0 -36 7 -61 15 -25 8 -72 21 -105 30 -95 25 -167 46 -210 61 -23 8
-51 14 -63 14 -12 0 -39 6 -59 14 -43 15 -130 35 -393 89 -137 28 -194 38
-267 47 -39 5 -97 13 -130 19 -92 17 -209 31 -333 41 -63 5 -144 14 -180 20
-166 25 -1122 46 -1410 30z m1394 -2638 c3 -5 -9 -19 -27 -32 -18 -13 -43 -34
-57 -46 -54 -49 -74 -64 -86 -64 -7 0 -17 -6 -21 -13 -27 -45 -170 -121 -276
-148 -45 -11 -96 -27 -114 -35 -17 -8 -34 -14 -37 -14 -12 0 -141 -65 -144
-72 -2 -5 -15 -8 -28 -8 -14 0 -23 -4 -20 -8 6 -10 -47 -52 -64 -52 -14 0 -13
13 2 28 9 9 2 12 -35 12 -48 0 -56 -7 -35 -28 9 -9 4 -12 -22 -12 -24 0 -52
13 -90 40 -61 44 -191 110 -218 110 -9 0 -26 7 -36 15 -11 8 -29 15 -40 15
-12 0 -30 7 -40 15 -11 8 -27 15 -35 15 -34 0 -109 48 -178 113 -40 38 -73 74
-73 79 0 10 63 -22 68 -34 2 -4 24 -17 50 -29 26 -12 59 -28 74 -35 14 -8 34
-14 45 -14 10 0 38 -7 63 -15 133 -43 170 -56 220 -75 180 -69 255 -76 366
-34 38 14 78 28 89 31 11 3 25 9 30 13 9 6 96 33 210 65 184 51 252 81 350
154 33 25 66 51 73 58 15 15 29 17 36 5z m-572 -73 c-23 -20 -75 -52 -116 -72
-71 -35 -78 -37 -193 -38 -65 -1 -125 -7 -135 -12 -12 -8 -23 -6 -45 8 -15 10
-53 31 -84 47 -52 26 -129 91 -129 110 0 4 7 8 15 8 8 0 15 -4 15 -9 0 -17
134 -74 205 -87 172 -32 301 -7 475 91 43 24 37 -5 -8 -46z m914 -100 c-32
-26 -111 -69 -196 -109 -36 -17 -112 -55 -170 -84 -58 -28 -125 -58 -150 -65
-25 -7 -52 -17 -60 -22 -8 -5 -28 -14 -43 -20 l-28 -11 30 -19 c17 -10 36 -28
43 -39 15 -24 50 -26 68 -5 12 14 15 14 36 0 31 -20 116 -19 179 1 55 18 79
28 175 72 36 16 85 37 110 47 87 35 166 70 229 102 35 18 68 33 73 33 6 0 31
14 57 31 25 18 78 43 116 58 59 21 87 25 182 26 110 0 139 -8 65 -17 -59 -8
-162 -49 -162 -64 0 -10 17 -14 63 -15 61 0 62 0 38 -17 -14 -9 -60 -21 -105
-27 -69 -9 -81 -13 -84 -30 -2 -11 -11 -28 -19 -37 -16 -18 -105 -48 -145 -48
-34 -1 -151 -44 -156 -58 -2 -8 9 -12 30 -12 18 0 40 -4 47 -9 12 -8 8 -11
-15 -17 -16 -4 -69 -26 -119 -50 -49 -23 -112 -52 -139 -64 -35 -14 -46 -24
-39 -31 8 -8 31 -6 79 4 126 28 231 39 502 52 76 4 111 2 107 -5 -3 -5 5 -15
19 -21 20 -9 29 -9 40 1 9 6 30 16 48 20 89 22 175 59 240 102 57 38 138 114
138 130 0 4 7 8 15 8 8 0 15 -7 15 -15 0 -8 -5 -15 -11 -15 -11 0 -79 -63 -79
-74 0 -16 -205 -186 -225 -186 -5 0 -21 -6 -35 -13 -14 -8 -62 -21 -105 -31
-44 -9 -109 -23 -145 -31 -36 -8 -112 -20 -170 -25 -153 -15 -241 -28 -275
-41 -31 -12 -53 -21 -139 -58 -27 -12 -54 -21 -61 -21 -7 0 -26 -7 -41 -15
-32 -17 -84 -20 -84 -5 0 5 16 12 36 16 35 6 104 39 194 93 25 14 54 31 64 37
11 6 22 16 24 23 5 16 -80 6 -143 -16 -22 -8 -87 -18 -146 -23 -170 -16 -272
-35 -346 -66 -35 -16 -83 -18 -83 -5 0 11 25 21 55 21 12 0 28 6 35 14 6 8 21
16 32 18 12 2 23 9 26 16 7 23 -60 13 -207 -29 -35 -11 -73 -19 -83 -19 -25 0
-23 17 5 26 39 12 161 73 187 93 23 18 23 20 7 27 -17 6 -43 2 -162 -26 -79
-18 -150 -38 -178 -49 -34 -13 -47 -14 -47 -2 0 5 12 12 26 15 15 4 33 14 41
21 8 8 23 15 33 15 10 0 22 5 26 11 3 6 20 17 38 25 l31 13 -28 1 c-31 0 -111
-17 -142 -31 -21 -9 -95 -36 -129 -46 -13 -4 -17 -2 -14 8 3 8 53 39 113 69
60 30 110 61 113 68 6 19 -53 15 -120 -9 -103 -38 -87 -1 22 47 30 14 64 29
75 34 11 5 42 17 69 26 27 9 104 42 171 75 68 32 138 62 156 65 19 4 46 13 61
20 15 8 37 14 48 14 18 0 173 67 235 102 75 43 134 68 159 68 l29 0 -27 -21z
m1064 13 c0 -17 -27 -39 -70 -56 -25 -10 -66 -29 -91 -42 -49 -25 -60 -24 -52
6 5 18 31 32 153 87 30 14 60 16 60 5z m-3148 -177 c107 -36 156 -54 176 -65
29 -16 85 -38 137 -56 51 -16 100 -37 189 -80 28 -13 53 -24 57 -24 5 0 25
-11 45 -25 28 -19 32 -25 17 -25 -10 0 -23 4 -29 10 -18 18 -103 29 -114 15
-13 -16 -5 -22 85 -65 82 -40 135 -72 135 -82 0 -13 -34 -9 -55 5 -11 8 -40
19 -65 26 -184 50 -209 52 -156 16 20 -14 39 -25 43 -25 13 0 103 -46 103 -52
0 -5 9 -8 19 -8 21 0 37 -17 26 -28 -3 -4 -20 1 -36 11 -17 9 -37 17 -46 17
-8 0 -27 6 -41 14 -93 49 -301 93 -325 69 -8 -7 31 -53 46 -53 5 0 38 -13 74
-30 35 -16 70 -30 77 -30 8 0 19 -6 25 -14 6 -7 25 -16 41 -20 17 -3 30 -10
30 -16 0 -14 -20 -12 -54 5 -15 8 -39 15 -52 15 -13 0 -41 7 -63 16 -41 16
-137 16 -134 -1 1 -5 10 -11 20 -13 47 -7 63 -13 63 -22 0 -14 -47 -12 -83 4
-32 13 -96 31 -172 47 -22 5 -100 13 -173 19 -73 6 -145 16 -160 21 -40 16
-130 39 -150 39 -15 -1 -15 -2 2 -11 10 -6 26 -19 35 -28 20 -20 228 -122 279
-136 12 -3 22 -11 22 -16 0 -20 -64 -6 -210 46 -25 9 -49 20 -55 24 -14 11
-109 38 -180 52 -59 11 -157 25 -345 49 -52 7 -102 15 -110 20 -9 4 -31 11
-49 15 -62 13 -144 57 -233 124 -27 19 -48 39 -48 43 0 13 39 9 68 -6 15 -8
47 -22 72 -31 25 -9 60 -23 78 -31 18 -8 42 -14 53 -14 11 0 33 -7 50 -16 31
-15 69 -11 69 8 0 13 279 5 395 -12 151 -21 210 -31 238 -36 38 -9 34 9 -10
39 -33 23 -228 107 -248 107 -4 0 -21 6 -38 14 -18 8 -45 19 -62 25 -31 11 -4
10 123 -6 42 -5 61 12 25 23 -10 3 -31 11 -48 19 -16 7 -77 16 -134 20 -101 6
-202 20 -231 32 -29 12 75 22 242 22 214 1 288 -15 469 -102 119 -57 186 -76
304 -87 61 -5 115 -10 120 -10 29 0 -75 49 -105 50 -19 0 -42 4 -50 10 -31 19
23 23 152 10 121 -12 175 -9 112 6 -16 3 -50 24 -76 45 -26 22 -51 39 -56 39
-5 0 -32 7 -58 15 -27 8 -67 19 -89 25 -38 9 -145 91 -145 111 0 4 22 -3 49
-17 28 -13 83 -35 123 -49z m-1712 -316 c30 -14 75 -34 100 -43 25 -10 53 -22
62 -27 16 -8 40 -15 133 -38 94 -23 215 -41 275 -41 36 0 120 -7 185 -15 66
-8 154 -15 195 -15 41 0 93 -3 115 -7 59 -10 18 -21 -85 -23 -105 -3 -145 -11
-145 -29 0 -25 -65 -33 -220 -28 -109 4 -170 12 -225 27 -41 12 -89 25 -105
29 -17 4 -39 13 -50 19 -11 5 -54 27 -96 47 -83 40 -209 137 -209 162 0 8 3
13 8 11 4 -2 32 -15 62 -29z m5300 1 c13 -9 12 -12 -5 -25 -20 -16 -78 -35
-106 -35 -9 0 -36 -9 -60 -20 -24 -11 -53 -20 -64 -20 -11 -1 -34 -9 -52 -18
-117 -63 -185 -92 -216 -92 -14 0 -28 -4 -31 -9 -3 -5 -27 -12 -53 -15 -27 -4
-61 -11 -78 -16 -67 -20 -323 -27 -395 -11 l-35 8 38 8 c20 4 37 11 37 15 0
10 -63 20 -135 20 -74 0 -103 14 -48 23 21 4 65 7 98 7 33 0 98 7 145 15 47 8
121 15 165 15 112 0 364 47 424 79 11 6 40 11 64 11 24 0 86 13 138 29 52 17
105 32 119 34 14 2 27 5 30 5 3 1 12 -3 20 -8z m-3286 -219 c13 -5 16 -10 8
-15 -15 -9 -63 4 -56 15 6 11 21 11 48 0z m1106 -1 c0 -5 -15 -10 -32 -9 -28
0 -30 2 -13 9 28 12 45 12 45 0z m-3368 -64 c66 -28 184 -46 303 -47 66 0 158
-4 205 -9 258 -25 482 -32 653 -19 95 8 231 14 303 14 117 0 134 -2 153 -19
15 -14 41 -21 82 -24 71 -5 84 -18 28 -27 -22 -4 -53 -13 -67 -21 -15 -8 -35
-14 -45 -14 -9 0 -25 -4 -35 -10 -20 -12 -97 -39 -132 -47 -13 -4 -31 -12 -38
-20 -16 -15 -42 -17 -42 -3 0 5 10 12 23 15 22 6 53 42 44 51 -2 3 -46 -3 -98
-11 -52 -9 -137 -23 -189 -30 -131 -19 -263 -42 -340 -59 -36 -7 -90 -19 -120
-26 -30 -6 -73 -18 -95 -25 -22 -7 -69 -22 -105 -34 -94 -30 -136 -46 -215
-81 -38 -17 -87 -38 -107 -47 -21 -9 -38 -20 -38 -25 0 -13 60 -10 105 6 22 8
67 21 100 29 33 9 80 21 105 28 25 7 65 16 90 19 25 4 71 13 102 20 76 17 114
2 43 -16 -106 -28 -141 -40 -168 -58 -15 -10 -26 -21 -23 -23 2 -2 40 1 85 7
82 12 143 5 91 -10 -14 -5 -41 -8 -60 -9 -20 -1 -40 -5 -45 -10 -6 -6 -28 -14
-50 -20 -22 -6 -65 -18 -95 -27 -56 -17 -127 -35 -235 -59 -33 -8 -85 -22
-115 -31 -30 -9 -74 -21 -97 -28 -24 -6 -43 -16 -43 -23 0 -10 31 -13 126 -13
126 0 160 -13 66 -25 -26 -3 -76 -11 -112 -16 -36 -6 -121 -15 -190 -20 -133
-9 -304 -29 -460 -54 -355 -55 -412 -65 -424 -75 -35 -33 286 -19 479 21 28 6
115 15 195 20 378 23 464 24 330 1 -30 -6 -71 -16 -90 -22 -19 -7 -41 -15 -49
-17 -11 -3 -12 -6 -3 -15 9 -9 46 -9 155 1 78 7 159 15 180 18 23 3 37 1 37
-6 0 -5 -23 -13 -50 -17 -28 -4 -53 -10 -55 -15 -3 -4 -31 -11 -63 -14 -31 -4
-73 -11 -92 -16 -19 -4 -80 -13 -135 -18 -188 -20 -399 -46 -660 -85 -55 -8
-143 -20 -195 -26 -119 -15 -134 -20 -95 -31 17 -5 167 -6 340 -3 304 7 398 3
378 -17 -5 -5 -76 -14 -159 -19 -82 -5 -196 -14 -254 -20 -58 -5 -186 -10
-285 -10 -176 0 -253 -11 -169 -25 21 -3 66 -12 99 -20 33 -8 95 -17 137 -21
43 -3 75 -10 72 -15 -7 -12 -178 -11 -269 1 -144 19 -221 31 -245 40 -14 4
-51 11 -82 14 -47 5 -58 3 -58 -9 0 -8 12 -17 28 -21 15 -3 47 -12 72 -19 230
-71 297 -80 603 -79 147 0 267 -3 267 -7 0 -10 -42 -15 -247 -30 -130 -10
-187 -10 -280 0 -212 23 -428 71 -553 123 -25 11 -54 23 -65 28 -11 4 -45 18
-75 30 -60 23 -89 35 -135 55 -16 8 -40 16 -52 20 -13 3 -23 10 -23 15 0 6 57
7 139 3 76 -3 147 -3 157 1 18 7 18 8 0 22 -11 8 -30 14 -42 14 -21 0 -56 9
-184 48 -159 48 -341 171 -389 265 -8 15 -21 27 -28 27 -13 0 -63 47 -63 59 0
3 -11 18 -25 33 -57 62 -111 194 -126 308 -8 67 -2 150 11 150 5 0 11 -19 15
-42 7 -45 39 -147 55 -176 5 -9 11 -24 14 -32 14 -36 97 -151 149 -204 98
-102 291 -215 457 -269 260 -84 527 -137 692 -137 109 0 268 28 292 51 11 10
18 21 15 24 -3 3 -66 10 -140 15 -74 6 -145 13 -159 17 -14 3 -56 11 -95 19
-104 19 -168 34 -185 43 -9 5 -31 12 -50 16 -19 4 -41 11 -50 15 -8 4 -39 18
-67 31 -29 12 -53 26 -53 30 0 3 -10 9 -22 13 -17 4 -20 8 -11 17 8 8 22 8 55
-4 129 -45 194 -52 463 -51 221 1 277 4 375 23 160 29 239 47 280 62 19 6 41
14 48 15 7 2 10 8 7 14 -4 6 -71 10 -168 9 -89 0 -187 4 -217 10 -94 17 -212
66 -257 108 -27 24 -15 40 18 23 73 -40 312 -79 479 -79 52 0 129 4 170 10 41
6 111 14 155 19 76 9 102 14 223 46 149 40 255 72 299 91 17 7 35 13 41 13 5
0 23 7 38 15 16 8 36 15 45 15 9 0 22 6 29 14 6 8 20 16 31 18 33 5 21 23 -14
21 -17 -1 -88 -11 -157 -23 -146 -26 -466 -34 -535 -13 -22 6 -71 19 -110 28
-104 25 -108 26 -99 35 5 5 113 10 239 13 127 2 259 10 295 16 123 22 215 42
260 57 25 8 54 14 64 14 11 0 42 6 70 14 28 8 94 22 146 32 52 9 101 19 107
21 26 10 1 21 -59 28 -35 4 -70 11 -79 16 -9 4 -43 13 -75 19 -129 22 -172 32
-249 57 -44 15 -87 32 -95 38 -8 7 -23 15 -32 18 -22 8 -24 27 -3 27 8 0 29
-6 47 -14z m5652 5 c3 -5 -6 -14 -22 -20 -15 -6 -34 -15 -42 -20 -42 -25 -146
-61 -177 -61 -12 0 -44 -7 -70 -16 -26 -9 -75 -20 -108 -25 -143 -18 -221 -32
-229 -39 -10 -10 -8 -10 139 -35 114 -19 217 -40 290 -60 224 -60 369 -77 595
-72 107 2 210 8 229 12 24 5 32 4 27 -4 -4 -6 -15 -11 -26 -11 -10 0 -20 -7
-24 -15 -3 -8 -14 -15 -25 -15 -10 0 -63 -12 -117 -27 -91 -24 -115 -27 -294
-27 -118 -1 -217 4 -250 11 -178 39 -232 45 -239 28 -3 -5 6 -12 20 -16 13 -3
42 -13 64 -22 22 -10 51 -23 65 -28 14 -6 38 -17 53 -25 16 -8 37 -14 47 -14
10 0 21 -4 24 -9 3 -4 36 -18 73 -29 64 -19 96 -27 248 -66 65 -16 177 -32
295 -42 96 -8 380 19 485 46 177 45 233 65 252 90 6 8 15 11 19 7 9 -9 -43
-57 -62 -57 -7 0 -14 -4 -16 -8 -4 -11 -73 -52 -86 -52 -6 0 -35 -11 -64 -25
-117 -54 -135 -57 -318 -62 -232 -5 -254 -10 -172 -41 53 -19 259 -64 372 -81
30 -5 75 -13 100 -19 163 -41 389 -55 452 -28 58 24 132 46 158 46 14 1 36 7
50 15 29 17 60 19 60 5 0 -24 -152 -74 -345 -111 -27 -6 -84 -17 -125 -25 -41
-8 -144 -21 -228 -29 -83 -8 -157 -17 -162 -20 -18 -11 -11 -35 13 -39 212
-46 459 -42 677 10 188 45 264 67 400 119 185 70 279 130 402 257 49 49 94
102 102 116 41 75 86 174 86 188 0 9 10 48 22 87 23 78 36 74 37 -12 1 -44
-32 -199 -49 -229 -5 -10 -19 -39 -31 -67 -29 -69 -90 -147 -144 -186 -25 -18
-45 -39 -45 -47 0 -8 -31 -45 -69 -81 -74 -72 -196 -142 -306 -175 -108 -32
-119 -35 -183 -45 -62 -10 -92 -24 -92 -42 0 -12 96 -11 220 2 58 5 107 6 112
1 4 -4 -17 -19 -49 -32 -32 -13 -85 -35 -118 -50 -33 -15 -80 -35 -105 -44
-25 -10 -53 -22 -62 -27 -10 -5 -34 -13 -55 -18 -21 -6 -65 -17 -98 -26 -217
-59 -450 -89 -620 -82 -173 8 -315 23 -328 36 -6 6 -29 11 -51 12 -23 0 -50 4
-61 9 -18 7 -19 8 -2 15 21 9 87 -3 106 -18 10 -8 101 -12 310 -12 252 0 308
3 376 18 106 25 183 47 222 63 17 8 38 14 47 14 8 0 20 9 26 20 10 20 9 20
-47 14 -32 -3 -65 -8 -73 -11 -21 -7 -163 -33 -240 -43 -88 -12 -241 -12 -260
0 -8 5 -10 10 -5 10 53 2 214 22 243 29 20 6 50 13 66 16 71 15 -10 25 -204
25 -113 1 -241 5 -285 10 -44 5 -158 14 -254 20 -96 5 -176 12 -179 15 -17 17
44 20 366 21 197 1 366 2 376 3 38 2 5 14 -81 28 -98 16 -249 40 -303 48 -144
22 -313 41 -567 65 -93 8 -155 20 -248 45 -27 8 -68 17 -90 20 -22 4 -44 10
-50 15 -5 4 -28 11 -49 14 -29 6 -36 10 -25 16 15 10 57 3 76 -12 6 -5 77 -12
156 -15 139 -6 145 -5 163 16 17 20 27 21 179 21 88 0 178 -5 200 -10 75 -18
399 -51 438 -44 68 11 5 38 -143 60 -52 7 -135 20 -185 28 -215 35 -367 55
-462 60 -56 3 -124 10 -150 15 -26 6 -78 13 -115 16 -38 4 -68 11 -68 15 0 5
55 11 123 12 77 2 120 7 117 13 -7 15 -91 42 -235 76 -71 17 -150 36 -175 44
-25 7 -79 23 -120 35 -41 12 -86 25 -100 30 -14 5 -44 12 -67 15 -24 4 -43 12
-43 17 0 11 76 6 150 -8 l35 -7 -29 26 c-16 15 -36 27 -45 27 -9 0 -28 6 -42
14 -14 7 -47 16 -72 20 -26 4 -49 11 -52 17 -4 5 -21 9 -38 10 -18 0 -41 4
-52 9 -18 7 -18 8 7 15 18 4 38 1 59 -9 18 -9 44 -16 58 -16 26 0 124 -19 231
-45 109 -27 176 -43 220 -55 79 -20 100 -23 100 -11 0 13 -123 71 -215 100
-38 12 -79 26 -90 31 -131 57 -353 108 -710 165 -49 7 -117 19 -150 24 -90 16
-145 14 -145 -4 0 -9 8 -18 18 -21 45 -15 203 -82 255 -109 16 -8 34 -15 42
-15 7 0 18 -7 25 -15 7 -8 23 -15 36 -15 12 0 29 -7 38 -15 8 -8 21 -15 29
-15 23 0 47 -11 47 -21 0 -14 -34 -11 -56 6 -10 8 -31 15 -45 15 -15 0 -32 7
-39 15 -7 8 -21 15 -32 15 -11 0 -32 6 -46 14 -30 15 -95 45 -282 127 -25 11
-53 24 -62 30 -10 5 -23 9 -30 9 -7 0 -24 6 -38 13 -14 7 -60 24 -102 37 -43
13 -78 28 -78 33 0 5 39 8 88 7 117 -3 142 -2 142 9 0 5 -9 13 -20 16 -11 3
-20 11 -20 16 0 12 139 8 394 -11 181 -14 263 -11 646 20 58 5 159 9 225 10
72 0 142 6 175 15 30 8 67 15 81 15 15 0 40 7 55 15 34 17 41 18 48 6z m-4294
-270 c0 -5 -10 -13 -22 -16 -13 -4 -63 -26 -113 -50 -123 -59 -160 -75 -178
-75 -8 0 -28 -7 -43 -15 -33 -17 -54 -19 -54 -6 0 5 12 12 28 15 15 4 41 13
57 21 71 32 163 74 200 90 22 9 54 23 70 31 35 16 55 18 55 5z m3409 -187 c11
-11 -12 -15 -48 -9 -24 4 -38 11 -35 17 6 9 72 3 83 -8z m-3871 -1 c-10 -2
-26 -2 -35 0 -10 3 -2 5 17 5 19 0 27 -2 18 -5z m3981 -19 c51 -11 36 -27 -20
-22 -58 6 -92 28 -42 28 17 0 45 -3 62 -6z m-4093 -14 c-17 -6 -36 -5 -45 0
-11 7 -3 9 29 9 42 -1 43 -1 16 -9z m2094 -31 c0 -11 -4 -17 -10 -14 -5 3 -10
13 -10 21 0 8 5 14 10 14 6 0 10 -9 10 -21z m-420 -30 c0 -5 -7 -9 -15 -9 -15
0 -20 12 -9 23 8 8 24 -1 24 -14z m260 -19 c0 -10 -6 -31 -14 -47 -8 -15 -19
-39 -25 -53 -5 -14 -19 -46 -30 -72 -12 -26 -21 -53 -21 -60 0 -8 -4 -18 -8
-23 -8 -9 -55 -151 -82 -250 -35 -124 -65 -291 -81 -445 -13 -125 -6 -624 10
-690 6 -25 15 -79 21 -120 9 -69 16 -104 52 -275 7 -33 16 -65 20 -70 3 -6 9
-28 13 -50 8 -43 32 -128 45 -160 5 -11 12 -36 16 -55 3 -19 10 -39 14 -45 3
-5 17 -39 30 -75 13 -36 39 -94 57 -129 54 -107 68 -107 117 2 21 45 42 90 47
99 5 10 9 23 9 29 0 6 6 25 14 42 8 18 24 64 36 102 12 39 26 79 30 90 5 11
12 36 16 55 3 19 10 41 15 50 22 42 79 328 98 490 21 176 34 405 28 487 -26
351 -44 503 -67 558 -5 11 -12 40 -16 65 -3 25 -10 50 -14 55 -4 6 -11 30 -15
55 -4 25 -11 50 -15 55 -4 6 -11 26 -15 45 -7 33 -12 46 -49 132 -9 20 -16 41
-16 47 0 6 -4 19 -9 29 -41 82 -50 129 -29 150 18 18 34 14 45 -10 l11 -23 10
27 c10 25 13 26 41 15 17 -6 31 -15 31 -19 0 -4 11 -8 25 -8 18 0 25 -5 25
-20 0 -11 7 -20 15 -20 9 0 15 9 15 25 0 35 28 33 32 -2 2 -17 9 -28 18 -28
10 0 14 8 13 23 -3 26 -5 26 38 5 19 -10 44 -16 56 -15 11 2 24 -2 28 -7 3 -6
14 -11 24 -11 10 0 24 -7 31 -15 7 -8 20 -15 29 -15 19 -1 61 -34 61 -49 0
-14 27 -14 35 -1 13 20 32 10 28 -14 -6 -27 14 -45 23 -22 8 20 30 21 37 2 4
-11 16 -13 41 -9 28 4 36 2 36 -10 0 -8 -7 -17 -15 -21 -22 -8 -18 -26 5 -26
11 0 20 7 20 15 0 8 4 15 9 15 16 0 58 -44 62 -65 5 -26 37 -31 54 -9 11 16
15 16 29 5 9 -7 16 -19 16 -27 0 -7 10 -20 22 -28 22 -16 22 -16 3 -31 -19
-14 -19 -14 8 -15 20 0 27 5 27 20 0 25 18 26 36 3 19 -25 17 -32 -5 -26 -23
6 -39 -16 -20 -28 20 -12 56 -11 79 3 25 16 39 2 15 -16 -18 -13 -18 -14 3
-27 15 -10 22 -24 22 -46 0 -23 5 -33 15 -33 30 0 75 -30 75 -50 0 -11 -4 -20
-10 -20 -5 0 -10 -8 -10 -17 1 -17 2 -17 15 1 20 26 44 14 38 -18 -5 -23 -2
-26 25 -26 17 0 34 5 37 10 12 19 22 10 18 -14 -4 -19 1 -28 26 -40 17 -9 31
-21 31 -26 0 -5 9 -12 20 -15 22 -7 27 -31 8 -37 -17 -6 0 -28 23 -28 10 0 19
-7 19 -15 0 -9 -9 -15 -24 -15 -28 0 -40 -14 -32 -37 5 -12 9 -13 21 -3 16 14
35 5 35 -16 0 -21 18 -17 25 6 7 21 30 27 40 9 4 -5 0 -18 -9 -28 -14 -15 -14
-20 -2 -37 8 -10 25 -19 37 -19 31 0 34 -18 4 -32 -14 -6 -25 -7 -25 -2 0 5
-9 9 -20 9 -22 0 -27 -15 -7 -27 28 -18 40 -42 27 -58 -12 -15 -6 -35 11 -35
5 0 9 6 9 14 0 16 27 29 41 20 14 -8 11 -34 -4 -34 -15 0 -67 -41 -67 -53 0
-13 27 -7 40 8 7 8 19 15 26 15 20 0 18 -47 -3 -58 -10 -6 -14 -16 -10 -26 8
-20 37 -21 37 -2 0 18 17 30 24 17 3 -4 -6 -21 -19 -35 -14 -15 -25 -32 -25
-38 0 -6 -12 -8 -30 -4 -26 5 -30 2 -30 -15 0 -21 5 -22 60 -8 10 3 16 -5 18
-23 3 -23 -1 -27 -29 -30 -43 -4 -59 -30 -34 -54 13 -13 20 -15 23 -6 4 13 28
16 36 4 2 -4 -9 -23 -25 -41 -29 -34 -38 -61 -19 -61 5 0 14 9 20 20 6 11 19
20 30 20 18 0 17 -2 -4 -25 -13 -14 -29 -39 -36 -55 -7 -16 -22 -32 -33 -36
-19 -6 -19 -8 -4 -19 25 -18 21 -42 -8 -49 -27 -7 -32 -25 -12 -45 10 -10 7
-16 -12 -30 -21 -16 -22 -20 -9 -32 14 -12 13 -15 -1 -25 -14 -11 -14 -14 4
-34 19 -22 19 -22 0 -36 -10 -8 -24 -14 -31 -14 -13 0 -29 -68 -18 -79 4 -3 9
0 11 7 6 17 23 15 23 -3 0 -8 -7 -15 -15 -15 -8 0 -15 -7 -15 -15 0 -12 -4
-13 -19 -3 -15 9 -23 7 -41 -10 -22 -20 -22 -23 -7 -40 10 -11 14 -26 10 -40
-3 -12 1 -29 8 -39 13 -15 11 -16 -22 -9 -42 7 -69 0 -69 -19 0 -17 34 -28 60
-20 18 6 20 2 19 -37 -1 -24 -4 -33 -6 -21 -6 33 -28 47 -52 33 -12 -6 -21
-17 -21 -24 0 -8 -11 -17 -25 -20 -14 -4 -25 -12 -25 -20 0 -7 -10 -26 -22
-41 -16 -21 -19 -31 -11 -44 12 -19 0 -50 -24 -64 -19 -12 -16 -24 8 -30 31
-8 12 -30 -20 -24 -20 4 -30 0 -39 -14 -15 -24 -48 -25 -61 -1 -9 15 -10 13
-11 -10 0 -16 8 -33 22 -42 18 -13 19 -18 8 -30 -7 -10 -21 -14 -35 -10 -16 4
-26 -1 -39 -20 -18 -29 -43 -33 -60 -11 -9 12 -14 11 -35 -6 -18 -15 -21 -23
-13 -31 8 -8 13 -7 18 5 7 19 34 23 34 7 0 -6 12 -22 28 -35 30 -26 28 -37 -6
-28 -13 3 -22 13 -22 24 0 11 -7 19 -16 19 -12 0 -15 -7 -12 -25 3 -14 1 -25
-3 -25 -5 0 -9 -7 -9 -16 0 -11 -6 -15 -20 -11 -14 3 -24 -1 -31 -15 -6 -11
-17 -17 -26 -14 -21 8 -103 -51 -103 -74 0 -11 -6 -21 -12 -22 -18 -2 -49 -5
-75 -7 -15 0 -23 -7 -23 -18 0 -10 -4 -25 -9 -32 -8 -12 -12 -10 -22 12 -13
29 -29 27 -29 -4 0 -25 -17 -25 -25 1 -10 33 -32 23 -56 -25 -22 -44 -39 -51
-39 -14 0 10 7 19 15 19 8 0 15 7 15 15 0 20 -17 19 -28 -1 -11 -21 -47 -14
-47 9 0 9 -4 17 -8 17 -4 0 -11 0 -17 0 -5 0 -10 -7 -10 -15 0 -8 7 -15 15
-15 8 0 15 -9 15 -19 0 -11 5 -23 10 -26 6 -3 10 -10 10 -16 0 -12 -87 -12
-95 0 -3 6 -18 6 -38 0 -17 -5 -45 -9 -62 -7 -16 1 -41 -4 -53 -11 -13 -7 -34
-10 -47 -7 -15 4 -25 1 -29 -9 -7 -20 -33 -19 -45 3 -9 15 -10 14 -11 -6 0
-13 -12 -34 -27 -48 -24 -22 -28 -23 -43 -9 -9 8 -22 15 -29 15 -16 0 -41 25
-41 41 0 7 -6 4 -15 -7 -8 -10 -15 -27 -15 -37 0 -16 -4 -15 -30 10 -17 15
-36 28 -44 28 -7 0 -21 6 -30 14 -8 7 -23 11 -31 7 -22 -8 -30 -36 -14 -46 7
-5 10 -12 5 -17 -4 -4 -12 0 -17 10 -6 9 -15 17 -21 17 -6 0 -17 8 -24 17 -12
17 -14 17 -42 -4 -25 -18 -31 -19 -43 -7 -27 28 -77 64 -88 64 -6 0 -11 -9
-11 -20 0 -11 -4 -20 -10 -20 -5 0 -10 9 -10 20 0 11 -7 20 -15 20 -9 0 -15
-7 -13 -17 2 -10 -5 -19 -16 -21 -15 -3 -17 0 -12 13 10 28 -3 58 -22 50 -10
-4 -36 -9 -59 -11 -45 -4 -56 8 -30 35 10 11 5 13 -28 8 -22 -4 -45 -13 -51
-22 -16 -21 -20 -19 -19 13 0 23 -4 27 -27 25 -21 -1 -29 4 -37 28 -5 16 -15
29 -20 29 -6 0 -11 9 -11 20 0 11 -7 20 -15 20 -8 0 -15 -9 -15 -20 0 -11 -6
-20 -12 -20 -19 1 -78 57 -78 75 0 18 -11 19 -45 3 -29 -13 -43 -5 -27 15 15
17 6 27 -25 27 -14 0 -23 6 -23 15 0 18 -36 20 -44 3 -3 -9 -5 -8 -4 2 5 39
-43 79 -55 48 -3 -7 -6 -4 -6 7 -2 36 -16 49 -39 34 -17 -11 -23 -10 -38 5
-10 10 -18 30 -19 45 -3 77 -4 79 -34 86 -35 8 -49 35 -26 52 18 12 11 38 -6
27 -6 -3 -21 6 -34 20 -13 14 -31 26 -40 26 -19 0 -22 86 -2 93 6 3 -1 4 -18
4 -28 -2 -30 1 -33 36 -3 32 -6 37 -23 32 -16 -5 -19 -1 -19 28 0 97 -25 161
-44 112 -3 -10 -16 -15 -36 -13 -35 3 -38 13 -10 30 24 15 27 69 6 88 -8 6
-16 21 -18 33 -3 22 -23 22 -23 0 0 -24 -16 -26 -36 -4 -12 12 -19 24 -18 25
2 2 14 9 27 15 15 8 22 21 22 41 0 34 0 34 -35 18 -17 -7 -25 -19 -25 -35 0
-15 -5 -23 -12 -20 -16 5 -15 100 1 105 6 2 11 -3 11 -12 0 -9 7 -16 16 -16
12 0 15 6 10 24 -4 15 0 28 9 36 22 18 18 30 -9 30 -13 0 -29 7 -36 15 -7 8
-28 15 -47 15 -27 0 -34 4 -31 17 2 12 13 17 33 18 38 0 45 27 16 66 -27 37
-26 49 4 49 16 0 25 6 25 15 0 8 7 15 15 15 8 0 15 5 15 11 0 15 -60 1 -82
-19 -15 -13 -18 -13 -18 0 0 8 6 23 14 33 7 10 11 27 8 38 -5 19 -2 20 39 13
35 -6 42 -5 32 5 -21 21 -15 39 12 39 29 0 33 15 8 29 -10 5 -19 22 -20 38 -1
15 -4 40 -8 56 -6 21 -4 27 9 27 18 0 22 25 6 35 -17 10 -11 25 13 35 12 5 16
9 10 9 -18 1 -16 41 2 41 8 0 15 8 15 19 0 10 -7 24 -15 31 -8 7 -15 18 -15
25 0 7 7 15 15 19 18 7 20 67 3 84 -9 9 -8 15 4 24 9 7 18 20 21 28 4 10 6 7
6 -7 1 -31 51 -34 51 -4 0 11 -4 23 -10 26 -17 10 -11 25 9 25 10 0 21 -7 25
-15 3 -8 12 -15 21 -15 8 0 15 -5 15 -11 0 -5 5 -7 11 -3 8 5 8 9 -1 14 -8 5
-10 21 -5 49 l7 41 -34 0 c-31 1 -32 1 -14 15 25 19 46 19 46 0 0 -20 26 -19
42 1 7 9 23 26 36 39 24 24 29 59 11 71 -8 4 -6 10 6 17 14 7 21 6 30 -7 7 -9
16 -16 21 -16 15 0 39 43 39 70 0 22 4 25 33 22 33 -3 45 14 17 24 -8 4 -15
13 -15 21 0 13 9 15 45 10 40 -6 45 -5 45 13 0 13 -7 20 -20 20 -26 0 -25 12
4 37 13 11 26 27 29 34 6 15 7 14 38 -29 12 -17 21 -20 44 -14 40 11 43 31 6
38 -30 6 -31 8 -16 25 9 9 32 21 51 26 40 9 46 28 10 29 -35 1 -58 12 -51 24
3 6 17 7 30 4 16 -4 26 0 33 11 6 12 11 14 16 6 9 -13 82 -15 91 -2 3 6 -3 14
-12 20 -17 9 -17 11 5 33 19 19 25 21 42 10 16 -10 21 -9 29 6 7 14 18 17 46
14 27 -3 40 0 50 14 13 19 14 19 28 0 10 -13 16 -15 21 -7 4 6 0 14 -8 17 -21
8 -21 54 -1 54 8 0 15 -9 15 -19 0 -24 15 -35 36 -27 13 5 12 11 -6 37 -24 33
-20 51 5 25 30 -29 105 -12 105 24 0 21 1 21 29 4 25 -15 32 -15 46 -4 9 8 13
20 9 33 -6 19 -5 19 17 3 27 -19 91 -21 118 -4 16 10 23 7 45 -18 22 -24 27
-27 36 -14 7 11 5 18 -7 28 -13 9 -14 15 -5 24 8 8 15 8 25 -1 8 -6 32 -12 53
-14 36 -2 39 0 42 25 3 24 6 27 23 18 10 -6 19 -19 19 -30z m-676 -116 c20 -8
11 -24 -15 -24 -19 0 -25 11 -12 23 8 8 8 8 27 1z m-1755 -38 c-2 -2 -26 -7
-53 -10 -33 -5 -46 -4 -41 3 3 6 27 11 52 11 26 0 44 -2 42 -4z m5104 -7 c-8
-8 -25 -9 -60 -1 l-48 10 60 1 c43 1 56 -2 48 -10z m-1613 -84 c0 -8 -6 -15
-14 -15 -20 0 -29 17 -14 23 22 9 28 7 28 -8z m-954 -42 c33 -49 45 -86 60
-182 18 -120 18 -203 -1 -265 -16 -53 -57 -114 -84 -123 -9 -3 -24 -13 -33
-21 -24 -20 -60 -9 -80 25 -43 73 -29 349 25 497 13 36 64 96 82 96 7 0 21
-12 31 -27z m5584 -107 c-48 -238 -132 -395 -302 -562 -119 -116 -211 -179
-387 -265 -69 -34 -134 -65 -143 -70 -47 -24 -44 -5 3 27 30 20 72 55 94 78
44 45 92 79 201 145 69 40 224 174 224 192 0 22 -35 1 -89 -52 -24 -24 -156
-109 -168 -109 -6 0 -13 -4 -15 -8 -1 -5 -36 -28 -76 -53 -40 -24 -107 -65
-150 -91 -42 -26 -90 -54 -107 -62 -59 -29 -124 -56 -136 -56 -6 0 -32 -6 -58
-14 -25 -8 -68 -20 -96 -27 -72 -18 -335 -23 -425 -9 -41 6 -102 15 -135 20
-74 10 -187 39 -199 51 -6 5 -20 9 -32 9 -29 0 -54 10 -54 21 0 14 42 10 74
-6 15 -8 41 -15 56 -15 15 0 49 -7 76 -15 27 -8 67 -15 89 -15 22 0 67 -7 100
-15 66 -16 189 -19 311 -8 l79 8 -55 6 c-30 4 -92 7 -137 8 -45 1 -94 6 -110
12 -15 6 -66 15 -113 20 -46 5 -89 14 -94 19 -6 6 -24 10 -40 11 -17 0 -40 4
-51 9 -37 15 10 23 62 10 129 -32 500 -35 613 -5 30 8 69 15 86 15 17 0 50 6
75 14 241 76 327 110 414 166 17 11 37 23 45 27 8 4 60 40 115 82 108 81 239
208 308 299 45 60 107 177 107 202 0 9 6 24 14 35 7 11 17 34 21 50 8 29 9 29
13 6 2 -14 -2 -52 -8 -85z m-11205 47 c15 -70 89 -208 155 -288 52 -62 178
-183 250 -240 41 -32 77 -62 80 -66 8 -11 151 -93 210 -121 58 -28 225 -84
325 -111 190 -49 211 -52 481 -52 180 0 265 4 275 11 21 17 72 25 88 15 11 -7
4 -11 -25 -16 -21 -4 -53 -13 -71 -21 -17 -8 -46 -14 -65 -14 -18 0 -52 -7
-75 -15 -30 -10 -90 -15 -203 -16 -150 -1 -200 -9 -147 -23 39 -10 362 -7 373
4 6 6 44 13 85 16 41 3 91 12 112 20 20 8 53 14 72 14 18 0 36 4 39 9 8 12 63
19 77 11 6 -4 -5 -10 -25 -14 -19 -4 -48 -13 -63 -21 -15 -8 -41 -15 -56 -15
-16 0 -37 -5 -48 -11 -20 -10 -75 -19 -259 -40 -104 -12 -317 -6 -365 10 -16
5 -50 14 -75 21 -99 24 -126 32 -145 40 -11 5 -42 19 -70 30 -98 42 -231 114
-308 167 -43 29 -83 53 -88 53 -5 0 -12 6 -15 14 -3 8 -16 17 -28 20 -12 3
-34 16 -48 28 -31 28 -56 45 -85 57 -11 6 -24 15 -28 20 -9 16 -25 13 -25 -4
0 -8 7 -15 15 -15 8 0 15 -4 15 -8 0 -5 19 -22 43 -39 23 -17 52 -40 63 -51
12 -11 52 -42 90 -68 38 -26 101 -69 139 -95 94 -65 152 -119 128 -119 -21 0
-122 40 -213 83 -84 41 -247 162 -331 246 -141 141 -279 424 -279 572 0 53 16
66 25 22z m7535 -300 c0 -7 -4 -13 -10 -13 -5 0 -10 12 -10 28 0 21 2 24 10
12 5 -8 10 -21 10 -27z m-3360 -17 c0 -7 -9 -16 -20 -19 -15 -4 -20 0 -20 14
0 12 7 19 20 19 11 0 20 -6 20 -14z m3382 -41 c3 -14 1 -28 -3 -31 -5 -3 -9
-2 -9 3 0 4 -3 18 -6 31 -4 12 -2 22 4 22 5 0 12 -11 14 -25z m-3935 -82 c-3
-10 -5 -2 -5 17 0 19 2 27 5 18 2 -10 2 -26 0 -35z m-1419 0 c-10 -2 -26 -2
-35 0 -10 3 -2 5 17 5 19 0 27 -2 18 -5z m5387 -61 c-6 -14 -9 -11 -16 13 -12
41 0 70 13 32 5 -15 7 -35 3 -45z m-7010 38 c4 -6 21 -17 38 -25 84 -39 141
-75 120 -75 -12 0 -24 4 -28 9 -3 5 -19 12 -35 16 -17 4 -30 11 -30 16 0 5 -6
9 -13 9 -8 0 -24 9 -37 20 -13 11 -27 20 -32 20 -4 0 -8 5 -8 10 0 13 17 13
25 0z m6616 -5 c-1 -15 -24 -12 -29 3 -3 9 2 13 12 10 10 -1 17 -7 17 -13z
m3409 -15 c-30 -24 -97 -60 -110 -60 -19 0 -10 19 13 26 12 4 24 10 27 14 8
11 63 38 80 39 9 0 6 -7 -10 -19z m-7073 -52 c-2 -13 -4 -5 -4 17 -1 22 1 32
4 23 2 -10 2 -28 0 -40z m60 -20 c-2 -13 -4 -3 -4 22 0 25 2 35 4 23 2 -13 2
-33 0 -45z m4084 -30 c-8 -18 -10 -12 -9 32 0 50 1 52 9 23 6 -19 5 -40 0 -55z
m-52 -25 c1 -18 -3 -33 -8 -33 -12 0 -25 76 -15 91 10 17 22 -15 23 -58z
m-3659 36 c0 -11 -4 -17 -10 -14 -5 3 -10 13 -10 21 0 8 5 14 10 14 6 0 10 -9
10 -21z m-450 -112 c6 -73 29 -92 31 -25 1 24 5 54 10 68 6 16 7 -9 4 -72 -3
-74 -9 -106 -27 -140 -22 -41 -23 -52 -21 -238 3 -197 5 -211 54 -405 21 -83
37 -130 55 -167 8 -14 14 -32 14 -40 0 -8 14 -41 30 -73 17 -32 30 -65 30 -72
0 -8 7 -16 15 -19 8 -4 15 -14 15 -25 0 -10 6 -22 14 -26 7 -4 28 -35 46 -68
61 -112 117 -190 223 -310 89 -102 147 -158 290 -278 52 -44 246 -165 327
-204 77 -37 213 -94 260 -109 189 -60 524 -114 707 -114 107 0 347 29 453 55
36 9 92 22 125 30 93 21 213 59 263 84 9 4 35 16 57 27 64 29 318 174 340 194
11 9 45 34 75 55 30 21 75 56 99 79 82 76 226 228 239 252 7 13 17 24 22 24 5
0 20 19 32 41 39 70 44 78 77 114 17 19 36 45 42 58 22 48 41 77 50 77 5 0 9
11 9 24 0 13 7 26 15 30 8 3 15 16 15 29 0 14 7 30 15 37 8 7 15 23 15 35 0
13 7 25 15 29 17 6 21 76 5 76 -5 0 -10 14 -10 30 0 17 5 30 10 30 6 0 10 -14
10 -31 0 -20 4 -29 13 -27 16 6 22 67 8 81 -14 14 -15 100 -1 92 6 -3 10 -24
10 -46 0 -63 24 -44 28 22 2 29 9 57 15 61 16 10 16 130 0 135 -10 4 -13 -14
-13 -67 0 -53 -3 -71 -12 -67 -16 5 -14 113 2 132 8 10 12 109 12 320 1 280 6
353 21 292 4 -12 7 -147 9 -300 1 -153 5 -280 9 -282 10 -7 18 163 19 400 0
121 5 224 9 228 16 16 23 -136 18 -404 -5 -272 -10 -307 -61 -479 -9 -30 -21
-73 -27 -95 -6 -22 -14 -44 -20 -49 -5 -6 -9 -16 -9 -24 0 -37 -194 -402 -230
-432 -3 -3 -17 -21 -30 -40 -13 -19 -27 -37 -30 -40 -3 -3 -23 -27 -45 -55
-114 -143 -274 -287 -439 -399 -53 -36 -99 -66 -101 -66 -3 0 -34 -18 -69 -40
-57 -34 -109 -60 -231 -116 -54 -24 -208 -72 -300 -93 -49 -12 -106 -26 -126
-31 -56 -15 -281 -35 -404 -35 -132 0 -328 18 -410 38 -33 8 -96 22 -140 32
-44 9 -89 20 -100 25 -11 4 -45 16 -75 25 -57 18 -98 35 -215 91 -276 132
-512 320 -729 579 -106 126 -246 353 -302 490 -6 17 -17 41 -23 55 -6 14 -20
54 -31 90 -11 36 -25 79 -31 97 -5 17 -14 56 -19 85 -6 29 -14 73 -20 98 -5
25 -9 80 -10 123 0 43 -5 121 -11 173 -14 116 -5 231 17 213 12 -9 14 -6 14
18 0 16 -3 33 -7 37 -10 10 -13 72 -7 124 7 58 18 44 24 -31z m-3532 -3 c87
-84 198 -153 336 -209 69 -27 245 -75 278 -75 9 0 20 -5 24 -12 16 -25 -263
11 -318 42 -10 6 -24 10 -31 10 -21 0 -184 97 -224 133 -36 33 -133 150 -133
161 0 14 15 3 68 -50z m7300 24 c-4 -27 -48 -39 -48 -14 0 9 7 16 15 16 8 0
15 5 15 10 0 6 5 10 11 10 6 0 9 -10 7 -22z m3955 -9 c-23 -40 -130 -144 -185
-182 -70 -47 -125 -69 -298 -118 -39 -11 -157 -28 -240 -35 l-55 -4 55 21 c30
11 73 24 95 29 165 36 288 76 375 122 69 37 193 131 223 169 31 40 54 38 30
-2z m-7295 -37 c2 -7 -2 -12 -9 -12 -6 0 -18 -8 -25 -17 -7 -10 -16 -14 -21
-10 -4 5 0 14 10 21 9 7 17 19 17 25 0 15 22 9 28 -7z m3393 -57 c0 -5 -9 -11
-21 -13 -20 -3 -27 8 -13 22 10 9 34 3 34 -9z m1804 -96 c5 -5 1 -9 -12 -9
-31 0 -54 11 -47 21 6 10 43 3 59 -12z m-7038 0 c-14 -8 -22 -8 -30 0 -8 8 -3
11 19 11 25 -1 27 -2 11 -11z m1833 -59 c0 -5 -11 -10 -25 -10 -14 0 -25 5
-25 10 0 6 11 10 25 10 14 0 25 -4 25 -10z m-3245 -80 c18 -8 17 -9 -7 -9 -16
-1 -28 4 -28 9 0 12 8 12 35 0z m2878 -167 c4 -75 5 -139 2 -141 -2 -2 -8 -1
-14 3 -13 8 -15 275 -3 275 5 0 12 -62 15 -137z m-396 25 c-2 -18 -4 -6 -4 27
0 33 2 48 4 33 2 -15 2 -42 0 -60z m4173 48 c-14 -14 -22 -2 -14 18 5 14 9 15
15 4 4 -7 4 -17 -1 -22z m-5906 -84 c5 -9 -50 -36 -97 -47 -15 -4 -30 -11 -33
-16 -3 -5 -13 -9 -23 -9 -10 0 -24 -6 -30 -14 -6 -8 -26 -16 -44 -19 -18 -2
-45 -9 -62 -15 -29 -10 -52 -16 -180 -47 -209 -52 -440 -43 -582 21 -17 8 -33
14 -37 14 -3 0 -31 16 -63 35 -48 29 -54 35 -33 35 15 0 30 -4 35 -8 11 -9
118 -42 205 -63 68 -17 258 -16 331 1 102 24 204 52 236 66 17 8 37 14 45 14
8 0 19 5 24 10 6 6 28 13 50 15 21 3 50 9 64 15 50 19 185 27 194 12z m5878
-7 c0 -5 -5 -11 -11 -13 -6 -2 -11 4 -11 13 0 9 5 15 11 13 6 -2 11 -8 11 -13z
m2610 -1 c7 -5 33 -11 58 -15 25 -4 70 -17 100 -29 30 -12 71 -25 90 -30 19
-4 46 -12 60 -18 155 -64 480 -46 633 35 15 8 36 12 45 8 18 -7 14 -10 -108
-70 -146 -73 -367 -93 -531 -50 -30 8 -67 15 -84 15 -16 0 -39 7 -49 15 -11 8
-36 15 -55 15 -20 0 -45 7 -55 15 -11 8 -32 15 -47 15 -15 0 -30 4 -34 9 -3 5
-19 12 -36 16 -17 4 -42 13 -57 21 -15 8 -34 14 -43 14 -9 0 -22 7 -30 16 -10
13 -10 17 1 24 16 10 124 5 142 -6z m-6048 -23 c9 -15 -23 -36 -36 -23 -5 5
-7 15 -4 21 9 13 33 14 40 2z m3411 -31 c3 -5 -3 -10 -15 -10 -12 0 -18 5 -15
10 3 6 10 10 15 10 5 0 12 -4 15 -10z m717 -88 c-2 -29 -8 -52 -13 -52 -11 0
-12 58 -2 115 6 37 7 38 13 14 4 -14 5 -49 2 -77z m-4732 -32 c16 -129 57
-321 73 -336 4 -4 7 -14 7 -22 0 -8 9 -33 19 -56 10 -23 33 -72 51 -111 17
-38 58 -123 91 -188 32 -65 59 -120 59 -123 0 -13 -18 -1 -29 19 -6 12 -20 36
-31 52 -11 17 -24 40 -29 52 -5 11 -15 24 -20 28 -6 3 -11 15 -11 26 0 11 -6
22 -14 25 -8 3 -16 19 -20 35 -3 17 -10 28 -16 24 -14 -9 -12 -39 4 -72 24
-46 46 -100 46 -112 0 -6 5 -11 10 -11 6 0 10 -6 10 -14 0 -15 57 -93 107
-146 18 -19 33 -39 33 -44 0 -9 -50 20 -65 38 -5 7 -35 30 -65 51 -30 21 -63
48 -73 59 -10 12 -35 39 -55 61 -61 65 -112 131 -112 144 0 6 -4 11 -10 11 -5
0 -12 11 -16 25 -3 14 -10 25 -14 25 -5 0 -11 14 -15 30 -4 17 -11 30 -16 30
-5 0 -9 5 -9 11 0 7 -9 30 -19 53 -57 122 -84 205 -79 238 5 28 8 22 39 -82
12 -41 26 -82 30 -90 17 -30 49 -109 49 -119 0 -5 3 -11 8 -13 11 -5 52 -66
52 -78 0 -5 5 -10 10 -10 6 0 15 -11 20 -25 5 -14 14 -25 20 -25 15 0 12 36
-5 50 -8 7 -15 18 -15 25 0 8 -6 26 -14 42 -8 15 -19 39 -24 53 -6 14 -20 47
-31 74 -12 27 -21 54 -21 61 0 7 -7 26 -15 41 -8 16 -15 39 -15 52 0 13 -4 31
-9 41 -15 27 -25 121 -14 121 6 0 13 -19 17 -41 4 -23 13 -51 21 -62 8 -12 15
-31 15 -42 0 -11 9 -33 20 -50 11 -16 20 -35 20 -42 0 -11 46 -110 76 -166 8
-15 19 -25 25 -22 14 9 11 39 -6 61 -8 10 -15 35 -15 55 0 19 -5 40 -11 46 -7
7 -15 47 -20 90 -4 43 -13 122 -19 176 -7 58 -9 118 -4 145 8 50 9 48 24 -68z
m7944 74 c3 -9 6 -38 6 -65 0 -42 -5 -55 -33 -86 -25 -26 -39 -34 -52 -29 -15
5 -13 10 16 29 38 25 52 74 39 133 -6 25 -4 34 5 34 7 0 16 -7 19 -16z
m-11244 -49 c0 -63 19 -100 56 -109 33 -9 30 -26 -5 -26 -48 0 -81 48 -81 119
0 32 3 61 7 64 16 17 23 3 23 -48z m3137 -47 c-2 -18 -4 -6 -4 27 0 33 2 48 4
33 2 -15 2 -42 0 -60z m488 12 c4 -21 4 -48 0 -60 -12 -37 -25 -10 -25 51 0
66 14 72 25 9z m3685 45 c0 -3 -11 -23 -25 -45 -25 -40 -55 -53 -55 -25 0 8 3
15 8 15 4 0 15 14 24 30 14 25 48 42 48 25z m2180 -16 c0 -5 8 -9 19 -9 10 0
24 -7 31 -15 7 -8 19 -15 27 -15 8 0 27 -6 41 -14 37 -19 94 -41 177 -67 39
-12 76 -27 83 -32 6 -5 27 -13 45 -17 l32 -8 -30 -1 c-51 -2 -187 26 -235 48
-61 28 -123 63 -162 93 -18 13 -41 27 -51 31 -10 4 -16 11 -12 16 7 12 35 3
35 -10z m-1396 -69 c-4 -25 -10 -49 -15 -54 -5 -6 -9 -19 -9 -31 0 -11 -25
-92 -56 -180 -31 -88 -58 -170 -61 -182 -3 -12 -11 -28 -19 -34 -16 -13 -19
-59 -4 -59 6 0 13 8 17 18 3 9 18 33 32 52 14 19 33 51 42 70 15 33 24 54 63
143 9 21 16 43 16 50 0 7 6 24 14 38 7 14 16 42 20 62 4 21 11 37 16 37 14 0
12 -57 -2 -83 -6 -12 -15 -38 -19 -57 -13 -63 -68 -192 -112 -265 -85 -140
-170 -246 -293 -366 -102 -99 -150 -137 -160 -126 -2 2 10 20 28 39 63 67 84
93 116 146 17 29 32 55 32 58 0 6 37 93 50 116 6 10 10 27 10 39 0 27 -24 19
-28 -9 -2 -12 -10 -22 -18 -22 -8 0 -14 -8 -14 -19 0 -10 -6 -24 -14 -30 -8
-7 -17 -23 -20 -36 -4 -14 -11 -25 -16 -25 -6 0 -10 -8 -10 -18 0 -11 -9 -29
-20 -42 -11 -13 -20 -27 -20 -32 0 -5 -5 -6 -11 -3 -7 5 -5 13 5 24 9 10 16
25 16 33 0 9 6 21 14 27 8 7 17 23 20 36 4 14 11 25 16 25 6 0 10 7 10 15 0
17 41 99 52 103 4 2 8 8 8 14 0 5 6 24 14 41 55 122 100 245 111 310 4 20 11
40 16 43 5 3 9 24 10 47 1 23 4 53 9 67 l7 25 8 -28 c4 -15 2 -60 -5 -100 -6
-40 -16 -99 -21 -131 -5 -33 -13 -64 -18 -70 -5 -6 -11 -24 -14 -41 -3 -16 -9
-43 -13 -60 -6 -30 -6 -30 20 8 14 21 26 44 26 52 0 7 6 20 14 27 7 8 17 29
21 48 4 18 18 53 31 78 13 25 24 51 24 57 0 7 7 18 15 25 8 7 15 22 15 34 0
12 6 31 14 42 8 12 18 44 22 73 4 35 10 48 15 39 5 -7 6 -33 3 -58z m975 53
c-24 -30 -33 -38 -74 -63 -22 -13 -46 -30 -53 -37 -8 -7 -18 -11 -23 -7 -10 6
54 54 71 54 6 0 10 4 10 9 0 7 67 58 79 60 2 1 -3 -7 -10 -16z m-7319 -3 c0
-6 -8 -14 -17 -17 -10 -4 -20 -10 -23 -14 -3 -4 -52 -29 -110 -56 -77 -36
-132 -55 -205 -68 -55 -10 -105 -22 -111 -27 -6 -4 -33 -12 -60 -18 -27 -5
-78 -17 -114 -25 -282 -66 -556 -74 -675 -19 -16 7 -43 16 -58 20 -19 4 -25 9
-16 14 6 5 35 1 63 -7 38 -12 96 -16 236 -15 180 0 307 13 477 47 40 8 89 15
110 15 21 0 47 7 57 15 11 8 27 15 37 15 9 0 30 7 45 15 16 8 37 15 46 15 10
0 32 6 50 14 18 8 49 21 70 30 20 9 42 16 50 16 8 0 18 3 21 7 7 7 106 50 120
52 4 0 7 -4 7 -9z m7980 0 c10 0 11 -3 3 -11 -12 -12 -63 -2 -63 13 0 6 10 8
23 4 12 -3 29 -6 37 -6z m-8172 -7 c-10 -2 -26 -2 -35 0 -10 3 -2 5 17 5 19 0
27 -2 18 -5z m6611 -97 c-9 -8 -10 -5 -5 14 3 14 7 39 8 55 1 20 3 16 5 -14 3
-26 -1 -48 -8 -55z m-6684 75 c6 -11 -63 -27 -73 -17 -9 10 19 26 45 26 12 0
24 -4 28 -9z m8335 -1 c8 -5 11 -12 8 -15 -9 -9 -68 5 -68 16 0 12 41 11 60
-1z m-8440 -30 c0 -5 -17 -10 -37 -9 -31 0 -34 2 -18 9 28 12 55 12 55 0z
m7760 2 c0 -11 -25 -30 -108 -86 -76 -50 -147 -110 -220 -185 -84 -87 -105
-137 -33 -83 40 30 34 26 181 115 58 35 122 71 142 80 21 10 54 25 73 35 30
14 39 15 56 4 11 -7 44 -15 71 -18 28 -2 54 -6 57 -9 8 -8 -20 -25 -42 -25
-10 0 -42 -11 -70 -24 -29 -13 -77 -31 -107 -41 -30 -9 -73 -25 -95 -35 -22
-10 -47 -21 -55 -24 -8 -4 -28 -15 -45 -26 -16 -11 -38 -23 -47 -26 -10 -4
-18 -13 -18 -20 0 -16 36 -19 45 -5 8 13 65 41 84 41 9 0 30 9 46 20 17 11 40
20 51 20 12 0 38 7 57 15 20 8 51 15 70 15 18 0 38 5 44 11 6 6 26 9 44 7 l34
-4 -30 -8 c-16 -4 -43 -14 -60 -21 -78 -34 -103 -43 -134 -50 -58 -12 -267
-118 -301 -150 -12 -13 -12 -15 2 -15 9 0 20 5 23 10 3 6 16 10 28 10 13 0 31
6 42 14 11 7 31 16 45 19 14 3 39 10 55 15 17 6 56 18 87 27 150 41 175 48
206 61 18 8 42 14 53 14 11 0 30 6 42 12 12 7 54 16 92 20 39 4 93 10 120 14
28 4 100 1 160 -5 99 -11 149 -22 240 -53 17 -5 44 -13 60 -18 17 -4 68 -24
115 -45 47 -20 105 -44 130 -52 68 -22 248 -53 315 -54 33 0 69 -4 80 -8 59
-24 -324 -26 -405 -2 -19 5 -64 16 -100 25 -36 8 -98 22 -139 32 -131 30 -460
10 -671 -42 -36 -8 -87 -20 -115 -25 -126 -24 -244 -57 -287 -80 -10 -5 -26
-9 -37 -9 -10 0 -24 -7 -31 -15 -10 -12 -7 -15 14 -21 14 -3 26 -9 26 -13 0
-3 -33 -17 -73 -30 -39 -13 -94 -34 -121 -47 -28 -13 -55 -24 -62 -24 -6 0
-17 -7 -24 -15 -7 -8 -19 -15 -26 -15 -7 0 -75 -42 -151 -92 -139 -94 -252
-158 -277 -158 -7 0 -19 -6 -26 -14 -6 -8 -21 -16 -32 -18 -12 -2 -23 -9 -26
-15 -4 -15 63 -18 72 -4 3 5 18 12 33 15 32 8 30 7 278 127 238 115 273 130
380 163 123 38 201 49 344 50 145 0 192 -6 349 -49 80 -23 151 -42 222 -60 36
-10 85 -23 110 -30 25 -7 72 -21 105 -30 33 -9 80 -22 105 -30 70 -21 113 -29
138 -26 32 4 82 -18 82 -35 0 -8 -10 -14 -23 -14 -13 0 -28 -5 -35 -12 -8 -8
-21 -9 -49 0 -21 6 -67 18 -103 28 -36 10 -78 26 -95 35 -16 9 -52 22 -80 28
-27 7 -74 19 -103 28 -43 14 -59 14 -86 5 -42 -16 -58 -15 -92 3 -16 8 -37 15
-47 15 -10 0 -26 4 -36 10 -69 36 -366 63 -451 40 -25 -7 -63 -14 -86 -15 -57
-4 -153 -25 -191 -41 -17 -8 -38 -14 -46 -14 -8 0 -20 -7 -28 -16 -14 -17 -82
-54 -100 -54 -6 0 -45 -16 -86 -35 -41 -19 -78 -35 -82 -35 -4 0 -82 -38 -173
-84 -141 -71 -194 -99 -308 -166 -8 -5 -44 -24 -80 -43 -36 -19 -86 -47 -110
-63 -67 -43 -83 -52 -107 -63 -13 -6 -23 -15 -23 -21 0 -5 -9 -10 -20 -10 -11
0 -20 -7 -20 -15 0 -8 6 -15 14 -15 7 0 19 7 26 15 7 8 18 15 26 15 12 0 74
31 229 115 158 86 373 185 404 185 9 0 25 7 35 15 11 8 35 15 53 15 18 0 33 4
33 10 0 12 65 24 81 14 16 -9 -13 -22 -52 -23 -15 -1 -32 -8 -39 -16 -7 -8
-20 -15 -29 -15 -13 0 -235 -108 -299 -145 -56 -33 -72 -49 -63 -58 7 -7 16
-5 29 6 10 9 24 17 31 17 7 0 26 7 42 15 16 8 42 22 58 30 16 8 36 15 44 15 9
0 28 6 44 14 34 17 86 35 133 47 147 36 276 58 400 69 124 11 172 10 327 -3
101 -9 191 -20 200 -25 10 -5 38 -12 63 -16 25 -4 59 -11 75 -16 17 -5 57 -17
90 -26 55 -16 325 -116 403 -150 18 -8 41 -14 50 -14 10 0 27 -7 38 -15 18
-14 17 -14 -14 -15 -19 0 -48 6 -65 14 -18 8 -43 16 -57 19 -30 6 -196 63
-225 77 -34 16 -197 62 -250 70 -27 5 -69 13 -93 19 -30 8 -54 8 -85 1 -29 -8
-93 -8 -202 -2 -153 9 -221 5 -370 -18 -71 -12 -174 -34 -195 -42 -8 -4 -33
-11 -55 -16 -22 -6 -62 -17 -90 -25 -27 -9 -83 -25 -124 -37 -78 -22 -177 -65
-186 -81 -4 -5 -17 -9 -30 -9 -13 0 -28 -6 -32 -13 -4 -8 -16 -16 -25 -20 -10
-3 -18 -11 -18 -17 0 -15 26 -12 40 5 7 8 24 15 39 15 15 0 32 5 38 11 12 12
98 27 198 34 l70 5 -85 -29 c-46 -16 -86 -33 -88 -39 -2 -6 67 -12 190 -15
493 -13 643 -25 698 -52 14 -7 56 -27 93 -45 77 -36 80 -58 6 -40 -24 7 -69
16 -99 21 -30 4 -71 13 -90 19 -43 12 -157 13 -164 1 -8 -12 18 -21 56 -21 16
0 42 -6 56 -14 15 -7 52 -21 82 -30 103 -32 182 -76 136 -76 -7 0 -44 11 -82
26 -104 38 -187 64 -208 64 -10 0 -59 14 -109 30 -77 26 -110 32 -221 36 -72
2 -180 6 -241 9 -93 4 -107 2 -92 -9 9 -7 17 -16 17 -20 0 -10 -39 -7 -80 5
-40 12 -110 5 -110 -11 0 -6 18 -10 39 -10 53 0 62 -17 14 -26 -21 -4 -42 -10
-48 -14 -5 -4 -48 -19 -95 -33 -47 -14 -98 -30 -115 -36 -16 -6 -70 -25 -120
-42 -130 -45 -135 -47 -135 -64 0 -8 3 -15 8 -15 49 2 212 22 236 29 145 45
172 54 181 62 5 5 16 9 25 9 8 0 28 7 44 15 15 8 33 15 38 15 6 0 24 6 41 14
18 7 55 18 82 24 28 6 68 15 90 21 50 13 215 13 275 0 25 -5 72 -13 104 -19
32 -5 64 -14 69 -19 6 -6 20 -11 32 -11 48 0 293 -99 267 -108 -20 -6 -302 78
-320 95 -7 7 -31 13 -52 13 -22 0 -65 7 -97 15 -73 19 -225 19 -278 0 -22 -8
-52 -15 -66 -15 -15 0 -32 -7 -39 -15 -7 -8 -23 -15 -36 -15 -12 0 -25 -4 -28
-9 -3 -4 -23 -11 -45 -14 -22 -3 -88 -23 -148 -44 -226 -83 -320 -102 -543
-111 -98 -4 -175 -11 -175 -16 0 -15 130 -34 238 -35 126 -1 221 13 326 50 89
30 129 29 65 -3 -173 -85 -383 -112 -554 -69 -92 23 -179 49 -202 62 -10 5
-26 9 -36 9 -9 0 -27 7 -38 15 -39 27 -260 56 -364 48 -30 -2 -68 -10 -85 -18
-16 -7 -39 -16 -50 -20 -17 -5 -17 -8 -5 -15 8 -4 48 -2 90 5 149 27 207 17
525 -95 146 -52 252 -70 407 -70 81 0 139 4 143 10 3 6 27 9 53 9 l47 -1 -50
-12 c-27 -6 -57 -15 -65 -20 -23 -16 -287 -20 -355 -6 -33 7 -81 16 -108 20
-26 5 -80 20 -120 34 -39 14 -96 28 -126 32 -48 6 -53 5 -49 -12 2 -10 12 -20
23 -22 11 -2 27 -10 35 -17 8 -7 28 -15 43 -19 40 -9 23 -29 -19 -22 -18 4
-74 20 -125 36 -155 50 -339 71 -339 39 0 -5 12 -11 28 -14 15 -3 41 -10 57
-16 17 -6 44 -15 60 -19 49 -14 102 -35 116 -46 8 -6 22 -14 32 -17 9 -4 17
-11 17 -17 0 -16 -47 -12 -54 5 -4 10 -19 15 -49 15 -24 0 -47 4 -52 9 -11 10
-44 14 -85 11 -23 -1 -23 -2 -5 -10 11 -5 32 -9 46 -9 15 -1 29 -8 33 -16 3
-9 18 -15 40 -15 41 0 66 -8 66 -22 0 -11 -49 -8 -202 12 -53 7 -105 9 -115 5
-15 -6 -13 -9 17 -25 19 -11 42 -22 50 -25 8 -4 31 -14 50 -22 102 -45 219
-88 278 -103 18 -4 38 -12 45 -18 7 -5 23 -12 37 -15 14 -3 39 -10 55 -15 100
-35 236 -65 399 -88 114 -17 126 -17 255 1 75 10 165 29 201 43 36 13 73 26
82 29 39 12 229 115 375 204 87 53 165 99 173 103 8 3 22 10 30 15 90 54 364
131 465 131 18 0 46 5 61 10 15 6 63 15 108 20 156 17 391 68 626 135 132 38
168 49 198 61 18 8 39 14 47 14 8 0 29 6 47 14 18 8 74 31 123 51 207 85 359
176 513 305 40 34 72 55 72 47 0 -17 -126 -139 -203 -195 -31 -23 -59 -46 -62
-52 -4 -6 -17 -15 -28 -21 -12 -5 -29 -13 -37 -19 -85 -55 -185 -107 -325
-171 -42 -19 -203 -76 -260 -93 -33 -10 -69 -21 -80 -26 -11 -5 -40 -14 -65
-20 -25 -6 -70 -18 -100 -26 -30 -9 -75 -20 -100 -25 -25 -6 -54 -14 -65 -20
-11 -5 -51 -14 -90 -19 -38 -5 -117 -16 -175 -25 -58 -9 -145 -22 -195 -30
-141 -21 -263 -54 -346 -94 -23 -12 -47 -21 -52 -21 -5 0 -104 -57 -220 -126
-117 -69 -221 -130 -232 -136 -66 -37 -137 -68 -153 -68 -11 0 -23 -7 -26 -16
-5 -13 -16 -15 -66 -9 -41 5 -60 4 -60 -4 0 -6 9 -11 20 -11 11 0 20 -4 20
-10 0 -5 -11 -10 -25 -10 -14 0 -25 5 -25 10 0 11 -42 13 -89 4 -42 -9 -40
-24 3 -24 19 0 38 -5 41 -10 4 -7 -38 -9 -132 -5 -86 3 -129 1 -113 -4 14 -5
37 -9 53 -10 15 -1 27 -6 27 -12 0 -20 -304 8 -420 40 -41 11 -95 25 -120 31
-25 7 -59 18 -77 26 -17 8 -38 14 -46 14 -9 0 -19 5 -22 10 -3 6 -13 10 -21
10 -26 0 -293 127 -434 207 -119 67 -130 72 -130 53 0 -19 122 -126 215 -188
59 -40 187 -112 235 -132 13 -6 27 -14 30 -18 3 -4 16 -13 30 -19 l25 -12 -27
0 c-16 -1 -28 4 -28 9 0 6 -10 10 -21 10 -26 0 -183 61 -254 98 -56 30 -166
109 -178 129 -4 7 -12 13 -17 13 -22 0 -7 -29 50 -95 32 -38 57 -71 56 -73 -2
-2 -27 11 -54 28 -52 31 -182 165 -182 186 0 7 -7 14 -15 18 -8 3 -15 14 -15
25 0 26 -18 37 -26 16 -10 -24 55 -140 114 -205 45 -50 190 -170 206 -170 3 0
27 -13 53 -28 87 -51 211 -97 328 -122 107 -23 364 -60 427 -61 29 -1 67 -4
83 -8 54 -12 9 -23 -113 -28 -97 -4 -132 -2 -203 16 -48 11 -107 21 -132 21
-25 0 -58 5 -74 11 -15 6 -61 13 -102 15 -62 4 -85 11 -150 46 -42 22 -80 47
-84 54 -4 8 -16 14 -26 14 -11 0 -22 7 -25 16 -4 11 -13 14 -27 11 -40 -11
-201 122 -276 228 -12 16 -25 27 -29 22 -9 -9 27 -82 58 -118 13 -14 37 -41
53 -60 17 -19 53 -50 80 -69 28 -19 52 -38 55 -41 3 -4 15 -9 28 -13 12 -4 22
-11 22 -16 0 -4 11 -11 25 -14 14 -4 25 -11 25 -16 0 -14 -26 -12 -42 3 -7 7
-20 16 -29 19 -29 11 -129 79 -129 87 0 5 -12 11 -28 14 -35 7 -131 99 -167
161 -15 25 -31 46 -35 46 -5 0 -10 10 -12 23 -2 12 -7 20 -13 17 -10 -5 -10
-12 1 -69 5 -25 3 -36 -9 -43 -12 -6 -15 -17 -10 -38 8 -43 -9 -37 -33 13 -40
80 -52 112 -59 151 -8 47 -25 32 -25 -22 0 -46 51 -206 71 -222 3 -3 10 -13
16 -23 15 -29 115 -127 128 -127 7 0 18 -7 25 -15 7 -8 21 -15 32 -15 21 0 95
-35 115 -55 7 -7 31 -21 53 -32 22 -10 40 -21 40 -25 0 -14 -35 -8 -70 12 -19
11 -52 27 -72 36 -21 9 -38 20 -38 25 0 5 -8 9 -18 9 -18 0 -147 63 -166 81
-6 5 -20 9 -32 9 -40 0 -247 182 -267 234 -4 9 -11 16 -17 16 -15 0 -12 -33 5
-56 8 -10 15 -28 15 -40 0 -11 5 -25 11 -31 6 -6 9 -17 6 -25 -4 -9 -8 -5 -12
10 -4 12 -10 22 -14 22 -3 0 -17 24 -30 53 -12 28 -28 61 -34 72 -6 11 -14 36
-18 55 -4 19 -12 53 -17 75 -6 22 -16 67 -23 100 -22 109 -43 118 -69 33 -46
-153 -65 -203 -82 -217 -10 -8 -18 -21 -18 -27 0 -27 -270 -274 -299 -274 -5
0 -12 -6 -15 -12 -3 -7 -3 -3 0 9 2 12 33 50 67 85 34 36 73 87 86 114 13 27
28 57 33 67 14 29 22 163 10 171 -15 9 -21 -5 -29 -61 -12 -93 -157 -345 -221
-384 -34 -21 -82 -32 -82 -20 0 6 18 24 39 42 44 34 107 121 134 184 10 22 22
48 27 57 13 23 13 108 0 108 -5 0 -13 -12 -16 -27 -4 -16 -12 -35 -20 -43 -7
-8 -16 -27 -19 -42 -4 -16 -11 -28 -15 -28 -4 0 -11 -12 -15 -27 -7 -26 -8
-26 -15 -8 -4 11 -5 24 -2 29 3 5 -3 15 -13 22 -20 15 -19 19 21 96 8 14 14
36 14 48 0 31 -24 20 -28 -13 -2 -15 -7 -27 -12 -27 -5 0 -11 -8 -14 -18 -9
-28 -109 -132 -127 -132 -9 0 -44 -24 -78 -54 -35 -30 -82 -67 -104 -83 -23
-15 -44 -30 -47 -33 -14 -16 -82 -51 -87 -46 -4 3 -4 7 -2 9 2 1 18 12 36 25
18 12 34 22 37 22 3 0 52 47 110 105 101 99 125 135 91 135 -8 0 -15 -7 -15
-15 0 -8 -5 -15 -11 -15 -5 0 -22 -13 -37 -28 -15 -15 -51 -46 -79 -67 -29
-22 -53 -42 -53 -46 0 -14 -222 -119 -250 -119 -17 0 -30 -4 -30 -10 0 -5 -15
-10 -34 -10 -19 0 -38 -4 -41 -10 -3 -5 -19 -10 -34 -10 -16 0 -48 -7 -71 -15
-46 -16 -304 -20 -390 -6 -36 6 -17 9 95 15 170 9 290 33 410 81 80 32 94 36
106 34 22 -5 89 11 89 21 0 5 10 12 22 16 12 3 63 38 113 75 51 38 97 69 103
69 7 0 12 4 12 10 0 5 15 24 33 43 64 66 107 131 107 162 0 26 -13 15 -77 -65
-58 -73 -130 -140 -151 -140 -6 0 -12 -6 -15 -12 -2 -7 -8 -10 -12 -6 -4 4 2
17 14 29 24 26 26 40 9 57 -9 9 -8 15 8 27 54 41 -49 -10 -124 -61 -20 -14
-46 -30 -57 -35 -11 -5 -27 -13 -35 -18 -23 -15 -149 -71 -158 -71 -5 0 -23
-7 -40 -16 -56 -27 -56 -4 0 33 29 19 62 39 73 44 11 5 27 13 35 19 8 5 51 30
95 56 139 82 277 195 260 213 -8 7 -279 -120 -391 -183 -34 -19 -85 -44 -115
-56 -30 -12 -67 -28 -84 -35 -103 -44 -265 -89 -363 -100 -49 -6 -68 -4 -87 9
-14 10 -42 16 -67 15 -74 -3 -141 4 -168 18 -14 7 -47 13 -75 13 -27 1 -61 7
-75 15 -14 8 -35 14 -46 15 -12 0 -27 7 -34 15 -7 8 -22 15 -34 15 -11 0 -30
7 -40 15 -11 8 -27 15 -37 15 -9 0 -22 7 -29 15 -7 8 -20 15 -30 15 -10 0 -23
7 -30 15 -7 8 -23 15 -35 15 -13 0 -25 7 -29 15 -3 8 -14 15 -24 15 -11 0 -25
7 -32 15 -7 8 -21 15 -31 15 -11 0 -19 5 -19 10 0 6 -10 10 -22 10 -22 -1 -22
-1 -3 -12 11 -6 23 -15 26 -21 7 -9 40 -30 77 -46 12 -6 22 -15 22 -21 0 -5 9
-10 19 -10 11 0 22 -4 25 -9 7 -11 170 -91 185 -91 6 0 11 -5 11 -11 0 -11
-50 -4 -80 11 -8 5 -34 18 -57 29 -85 41 -181 97 -318 185 -126 81 -136 87
-225 133 -35 18 -72 33 -81 33 -10 0 -20 4 -23 9 -3 5 -23 12 -43 16 -21 4
-42 10 -48 15 -12 10 -87 26 -205 45 -47 7 -92 16 -100 19 -8 3 -55 11 -105
16 -49 6 -130 16 -180 24 -87 14 -116 21 -235 53 -30 8 -80 22 -110 30 -30 8
-77 22 -105 29 -58 17 -254 80 -287 93 -221 87 -440 199 -553 284 -99 73 -215
176 -215 190 0 4 7 7 15 7 8 0 15 -4 15 -9 0 -4 19 -21 42 -37 24 -16 45 -31
48 -34 9 -10 95 -64 130 -83 19 -11 42 -25 50 -31 18 -15 247 -126 310 -151
45 -17 86 -33 158 -59 62 -22 278 -84 422 -121 36 -9 88 -23 116 -31 28 -8 61
-14 73 -14 12 0 47 -6 79 -14 31 -8 104 -22 162 -31 58 -8 142 -22 186 -30 45
-8 96 -15 114 -15 44 0 160 -27 245 -57 39 -13 84 -29 100 -34 58 -18 277
-144 474 -271 46 -30 201 -103 271 -127 128 -45 399 -67 490 -41 19 6 62 15
95 20 33 5 92 19 130 30 39 12 84 25 100 30 17 5 48 15 70 24 22 8 65 24 95
36 30 12 84 30 120 41 36 12 83 28 105 36 22 8 58 22 80 30 117 44 169 84 88
68 -21 -4 -47 -6 -58 -6 -11 1 -64 -4 -118 -10 -67 -8 -102 -8 -109 -1 -7 7 4
12 34 17 23 4 52 14 63 21 11 8 34 14 52 14 42 0 51 17 13 25 -19 4 -41 1 -61
-9 -18 -9 -47 -16 -65 -16 -18 0 -39 -7 -48 -15 -18 -18 -69 -20 -64 -2 3 6
13 14 23 16 10 2 24 9 31 16 16 15 156 75 177 75 23 0 47 11 47 21 0 14 -140
10 -185 -5 -82 -28 -225 -66 -250 -66 -24 0 41 44 79 54 48 12 18 29 -43 23
-63 -6 -94 -13 -236 -53 -91 -25 -115 -28 -275 -28 -167 -1 -218 5 -285 35
-13 6 -3 7 30 3 28 -3 117 -8 200 -10 151 -6 201 1 305 40 48 18 93 33 170 57
36 12 80 27 98 35 18 8 43 14 56 14 13 0 43 7 66 15 28 10 81 15 157 15 87 0
114 3 111 13 -10 30 -285 25 -393 -7 -27 -8 -68 -20 -90 -26 -22 -6 -54 -18
-72 -26 -17 -8 -36 -14 -43 -14 -12 0 -78 -19 -145 -42 -16 -6 -89 -13 -162
-15 -106 -4 -143 -2 -190 12 -167 50 -255 84 -247 96 2 4 19 3 37 -3 17 -5 50
-14 72 -18 22 -4 65 -14 95 -23 88 -24 276 -32 396 -16 101 12 128 24 82 33
-13 3 -93 7 -178 9 -85 3 -175 10 -200 16 -25 6 -67 15 -95 20 -66 12 -131 32
-235 71 -47 18 -98 35 -115 37 -16 3 -35 9 -40 14 -11 8 -53 20 -140 39 -27 6
-64 16 -82 21 -44 14 -231 23 -277 15 -27 -5 -36 -11 -32 -22 5 -12 -5 -13
-58 -8 -49 5 -71 3 -96 -10 -18 -9 -43 -16 -56 -16 -12 0 -24 -4 -26 -10 -1
-5 -25 -14 -53 -20 -27 -6 -72 -16 -99 -21 -87 -18 -88 1 -1 30 44 15 93 33
108 39 16 7 35 12 43 12 9 0 25 5 36 11 21 11 87 20 297 41 114 11 147 9 311
-22 25 -4 133 -38 240 -75 114 -39 224 -71 265 -76 73 -9 136 -1 136 16 1 9
-21 18 -131 50 -25 7 -103 34 -175 60 -71 25 -148 51 -170 56 -22 5 -45 16
-50 23 -6 8 -31 16 -55 19 -25 3 -79 11 -120 17 -153 24 -494 -2 -613 -46 -20
-8 -50 -14 -65 -14 -15 0 -36 -7 -46 -15 -11 -8 -31 -15 -45 -15 -14 0 -35 -7
-45 -15 -24 -18 -96 -21 -79 -4 17 17 112 49 144 49 15 0 32 6 39 14 6 8 23
16 37 18 15 2 28 9 31 16 8 25 -232 2 -288 -28 -12 -6 -28 -9 -36 -6 -16 6 -8
36 10 36 6 1 29 9 51 20 22 11 48 19 58 20 10 0 28 6 40 13 14 8 88 14 207 18
102 4 219 12 261 18 42 6 159 12 260 14 118 1 183 6 180 12 -5 13 -70 32 -138
41 -63 8 -77 21 -31 29 47 8 242 -25 262 -45 6 -6 20 -10 32 -10 13 0 26 -4
29 -10 3 -5 16 -10 27 -10 20 0 19 2 -6 25 -15 14 -32 25 -38 25 -6 0 -19 6
-27 13 -9 8 -45 24 -81 37 -36 12 -74 28 -85 35 -23 13 -99 34 -165 45 -25 4
-58 12 -75 18 -88 30 -133 42 -161 42 -17 0 -51 7 -75 16 -36 14 -96 17 -339
20 -162 2 -317 5 -345 5 -50 2 -112 -12 -172 -37 -17 -8 -39 -14 -49 -14 -16
0 -69 -16 -129 -40 -11 -4 -74 -25 -140 -45 -66 -21 -134 -44 -152 -51 -35
-16 -83 -18 -83 -5 0 5 15 13 32 17 18 3 46 12 63 19 16 7 50 21 75 31 25 9
68 27 95 39 61 27 215 81 270 94 22 5 76 19 120 31 113 30 262 45 465 45 224
0 357 -17 485 -61 23 -8 50 -14 60 -14 29 0 137 -35 199 -65 29 -14 58 -25 63
-25 6 0 16 -7 23 -15 7 -8 19 -15 28 -15 8 0 23 -7 33 -16 10 -9 23 -13 29 -9
14 9 -21 41 -86 82 -62 38 -231 118 -266 127 -16 3 -28 11 -28 16 0 6 -10 10
-22 10 -36 0 -68 11 -62 21 8 14 46 11 78 -6 15 -8 37 -15 47 -15 24 0 61 -16
274 -120 99 -48 187 -91 195 -94 8 -3 22 -10 30 -14 43 -25 59 -33 107 -57 28
-14 55 -30 58 -35 3 -6 14 -10 24 -10 10 0 24 -7 31 -15 14 -17 40 -20 40 -5
0 6 -7 13 -16 17 -9 3 -28 17 -43 31 -14 13 -35 28 -46 33 -11 5 -38 20 -60
32 -43 25 -111 63 -215 119 -36 19 -105 61 -155 92 -49 31 -124 72 -165 92
-41 19 -113 53 -160 75 -47 23 -93 45 -102 50 -10 5 -29 9 -43 9 -25 0 -129
31 -244 72 -107 38 -239 58 -382 58 -130 0 -267 -18 -311 -41 -10 -5 -37 -14
-60 -19 -24 -5 -74 -16 -113 -25 -38 -9 -80 -13 -93 -10 -24 6 -77 -7 -125
-31 -16 -8 -36 -14 -45 -14 -9 0 -30 -7 -46 -15 -15 -8 -38 -15 -50 -15 -12 0
-32 -7 -45 -16 -16 -12 -36 -15 -68 -11 -38 4 -46 2 -50 -13 -4 -15 -16 -18
-74 -18 -51 0 -69 3 -69 13 0 20 54 55 84 55 14 0 45 6 68 14 24 8 72 19 108
25 84 13 185 37 201 47 7 4 31 11 54 15 38 7 53 11 135 39 19 7 49 15 65 18
17 2 39 11 50 18 11 8 28 14 39 14 11 0 38 6 61 14 132 45 297 62 451 47 193
-19 342 -64 574 -173 82 -38 101 -48 202 -101 27 -14 61 -28 78 -32 16 -4 32
-11 35 -16 4 -5 19 -9 36 -9 16 0 29 -4 29 -10 0 -5 9 -10 20 -10 11 0 20 5
20 10 0 6 -9 10 -19 10 -10 0 -21 7 -25 15 -3 8 -12 15 -20 15 -8 0 -21 7 -29
14 -8 8 -45 31 -83 52 -38 20 -82 46 -99 59 -66 48 -131 92 -148 98 -9 3 -17
11 -17 17 0 5 -7 10 -17 10 -9 0 -23 7 -32 15 -9 8 -26 23 -39 35 -12 11 -33
20 -47 20 -16 0 -25 6 -25 16 0 14 -7 15 -46 9 -45 -6 -47 -6 -41 15 5 21 3
22 -30 17 -29 -5 -36 -3 -40 14 -3 11 -17 22 -32 25 -14 2 -52 11 -83 19 -32
8 -66 15 -77 15 -19 0 -132 33 -166 49 -63 30 -116 51 -127 51 -8 0 -18 4 -24
9 -20 20 -177 35 -354 35 -183 0 -236 -6 -440 -49 -147 -31 -232 -38 -354 -30
-75 4 -114 10 -105 16 8 5 34 9 59 9 92 1 279 28 302 44 12 9 32 16 43 16 11
0 29 7 39 15 11 8 28 15 37 15 10 0 30 6 46 14 257 125 549 155 815 83 31 -9
66 -20 77 -26 11 -6 30 -11 43 -11 13 0 36 -7 52 -15 15 -8 36 -15 45 -15 25
0 172 -49 224 -76 32 -16 57 -18 57 -5 0 7 -114 81 -126 81 -5 0 -130 56 -167
75 -16 8 -36 15 -46 15 -9 0 -26 7 -37 15 -10 8 -29 15 -41 15 -31 0 -54 11
-47 21 8 14 48 11 70 -6 10 -8 30 -15 44 -15 14 0 38 -7 54 -15 15 -8 36 -15
45 -15 9 0 29 -7 45 -15 15 -8 36 -15 45 -15 10 0 26 -7 37 -15 10 -8 31 -15
47 -15 15 0 27 -4 27 -10 0 -5 8 -10 17 -10 48 0 -180 139 -229 140 -7 0 -22
7 -32 15 -11 8 -29 15 -41 15 -11 0 -29 6 -40 14 -11 7 -33 16 -49 20 -23 6
-27 9 -15 17 7 5 28 9 45 9 19 0 34 6 38 15 7 19 40 19 74 1 15 -7 47 -23 72
-35 25 -12 63 -34 85 -50 45 -32 170 -116 217 -145 l31 -20 -24 44 c-34 61
-160 182 -255 246 -87 58 -116 84 -94 84 26 0 146 -75 214 -134 108 -93 154
-127 160 -118 5 9 -55 89 -117 155 -20 21 -29 37 -21 37 8 0 14 -4 14 -9 0
-13 57 -34 70 -26 6 4 25 -7 42 -24 37 -36 48 -39 48 -11 0 11 -4 20 -10 20
-5 0 -10 14 -10 30 0 95 101 -66 134 -215 4 -16 17 -50 28 -74 18 -37 22 -41
31 -26 6 11 5 36 -3 74 -6 31 -10 72 -8 91 l4 35 8 -40 c4 -22 12 -49 17 -60
5 -11 20 -49 33 -85 30 -81 46 -89 46 -21 0 27 4 52 8 55 7 4 52 -82 52 -99 0
-22 192 -293 259 -365 9 -10 57 -62 106 -117 50 -54 112 -117 139 -138 27 -22
63 -52 80 -67 17 -15 35 -28 39 -28 4 0 32 -18 61 -40 81 -62 88 -47 11 25
-42 40 -62 65 -52 65 10 0 17 -4 17 -9 0 -5 8 -12 18 -15 21 -8 33 -15 142
-87 103 -68 237 -149 246 -149 4 0 32 -15 63 -34 31 -18 106 -59 166 -91 61
-31 112 -60 115 -64 3 -4 23 -16 45 -28 108 -56 135 -72 126 -77 -5 -4 -44 7
-87 24 -43 16 -83 30 -89 30 -5 0 -22 6 -37 14 -15 8 -40 17 -57 21 -17 4 -33
11 -36 16 -4 5 -13 9 -21 9 -7 0 -33 8 -56 18 -42 16 -463 227 -496 247 -42
26 -86 57 -210 147 -126 94 -152 109 -152 89 0 -25 253 -227 330 -264 8 -4 29
-16 45 -27 17 -11 39 -24 50 -30 11 -6 34 -19 50 -29 49 -32 275 -142 400
-195 17 -7 46 -20 65 -29 19 -8 78 -32 130 -51 52 -20 103 -41 112 -46 10 -6
23 -10 29 -10 6 0 25 -6 42 -13 43 -18 124 -44 167 -52 19 -4 40 -12 47 -17 7
-5 22 -8 34 -6 29 4 38 28 10 28 -11 0 -23 5 -26 10 -9 15 29 12 61 -5 16 -8
37 -15 46 -15 9 0 20 -4 23 -10 3 -5 13 -10 22 -10 8 0 29 -6 46 -13 18 -8 48
-19 67 -26 239 -84 294 -96 323 -67 8 8 42 18 77 22 59 6 63 5 87 -21 20 -21
32 -26 53 -21 15 3 31 2 35 -2 6 -6 87 -10 219 -12 22 0 57 9 78 20 33 17 50
19 132 13 124 -8 232 13 328 63 14 8 34 14 45 14 10 0 27 7 37 15 11 8 28 15
39 15 10 0 25 7 33 15 9 8 26 15 38 15 13 0 29 7 36 15 15 18 74 21 68 3 -3
-7 -17 -14 -32 -16 -15 -2 -30 -10 -33 -18 -3 -8 -13 -14 -23 -14 -11 0 -21
-4 -25 -9 -11 -18 13 -21 56 -6 24 8 91 29 149 47 58 17 116 38 130 45 14 7
32 13 41 13 8 0 19 4 25 9 5 4 34 16 64 25 48 16 159 60 255 101 60 26 361
177 390 196 17 10 39 23 50 29 11 6 34 19 50 30 17 11 37 23 45 27 43 20 235
159 280 203 22 22 70 86 70 94 0 6 -48 -21 -60 -34 -3 -3 -27 -23 -55 -45 -27
-22 -56 -45 -63 -52 -25 -24 -238 -163 -250 -163 -7 0 -12 -4 -12 -8 0 -4 -15
-15 -32 -23 -18 -8 -80 -40 -138 -70 -91 -46 -177 -87 -255 -120 -11 -4 -41
-17 -67 -28 -26 -12 -54 -21 -62 -21 -8 0 -17 -3 -20 -8 -7 -12 -234 -87 -242
-80 -11 12 7 28 30 28 13 0 29 7 36 15 7 8 20 15 30 15 10 0 23 6 30 14 6 8
21 16 33 18 14 2 23 11 25 26 2 12 9 22 15 22 17 0 309 149 388 198 37 22 110
70 163 106 52 36 98 66 102 66 4 0 40 25 79 55 40 30 78 55 86 55 10 -1 9 -4
-3 -14 -10 -7 -18 -18 -18 -25 0 -6 -7 -11 -15 -11 -8 0 -15 -4 -15 -9 0 -11
-66 -79 -106 -109 -28 -20 -28 -21 -6 -22 12 0 22 4 22 8 0 5 8 13 19 18 86
41 346 292 463 446 47 62 98 127 113 143 29 34 125 192 125 207 0 5 6 22 14
36 8 15 18 36 22 47 14 38 17 -13 4 -60 -16 -58 -4 -76 26 -39 13 16 23 35 24
42 0 8 6 26 14 40 8 15 18 44 21 65 3 20 11 37 17 37 11 0 6 -74 -8 -135 l-7
-30 26 31 c15 18 27 37 27 44 0 7 6 26 13 43 8 18 22 59 33 92 10 33 28 68 39
78 11 10 27 24 36 32 24 23 32 18 26 -15 -9 -41 6 -38 52 10 21 22 42 40 48
40 5 0 9 -16 9 -35 -1 -26 -11 -45 -39 -73 -31 -32 -49 -72 -32 -72 3 0 39 28
80 63 41 34 103 78 138 96 34 18 80 46 102 61 42 30 55 35 55 22z m778 -9
c-10 -2 -28 -2 -40 0 -13 2 -5 4 17 4 22 1 32 -1 23 -4z m-1921 -70 c-2 -16
-4 -5 -4 22 0 28 2 40 4 28 2 -13 2 -35 0 -50z m-4913 5 c4 -24 3 -38 -4 -38
-5 0 -10 19 -10 42 0 49 5 47 14 -4z m566 -25 c0 -28 -3 -34 -10 -23 -13 20
-13 60 0 60 6 0 10 -17 10 -37z m-1680 7 c11 -7 7 -10 -17 -10 -18 0 -33 5
-33 10 0 13 30 13 50 0z m-152 -7 c-10 -2 -26 -2 -35 0 -10 3 -2 5 17 5 19 0
27 -2 18 -5z m7640 0 c-10 -2 -28 -2 -40 0 -13 2 -5 4 17 4 22 1 32 -1 23 -4z
m777 -49 c134 -22 172 -24 340 -21 105 3 210 8 235 11 38 5 41 4 20 -5 -14 -6
-33 -15 -44 -21 -68 -36 -371 -45 -511 -15 -44 9 -105 21 -135 27 -30 6 -71
14 -90 20 -19 5 -47 12 -62 15 -16 3 -28 10 -28 16 0 14 72 7 275 -27z m-6204
-65 c-16 -15 -26 -18 -34 -10 -8 8 -4 16 13 31 33 28 53 8 21 -21z m3529 -69
c0 -11 -4 -20 -10 -20 -5 0 -10 9 -10 20 0 11 5 20 10 20 6 0 10 -9 10 -20z
m-60 -136 c0 -8 -4 -14 -10 -14 -5 0 -10 9 -10 21 0 11 5 17 10 14 6 -3 10
-13 10 -21z m-487 -81 c8 -41 -8 -73 -32 -66 -26 7 -27 25 -2 40 13 8 18 19
14 33 -3 11 -1 20 5 20 5 0 12 -12 15 -27z m2727 -62 c91 -15 200 -54 187 -67
-4 -4 -147 20 -242 41 -38 9 -90 20 -114 25 -24 6 -47 13 -50 16 -8 8 146 -2
219 -15z m-8290 -31 c0 -5 -8 -13 -17 -18 -25 -13 -144 -35 -151 -28 -3 3 1 6
8 6 7 0 21 7 30 15 10 9 37 19 61 24 61 12 69 12 69 1z m8153 -49 c8 -8 -4
-11 -43 -11 -67 0 -102 9 -94 22 8 13 122 4 137 -11z m-510 2 c-13 -2 -33 -2
-45 0 -13 2 -3 4 22 4 25 0 35 -2 23 -4z m-7478 -23 c3 -5 -7 -12 -22 -16 -15
-4 -33 -11 -39 -16 -6 -4 -18 -6 -27 -2 -9 3 -24 -3 -36 -15 -11 -11 -46 -25
-81 -32 -33 -6 -63 -16 -66 -20 -3 -5 -16 -6 -29 -3 -12 3 -26 1 -29 -5 -4 -6
-22 -11 -40 -11 -19 0 -50 -7 -71 -16 -28 -11 -54 -13 -106 -8 -38 4 -69 10
-69 14 0 8 104 39 170 51 25 4 74 15 110 23 36 9 90 21 120 27 30 7 73 18 95
25 48 16 111 18 120 4z m8141 -4 c69 -21 185 -46 209 -46 11 0 32 -6 47 -14
14 -8 49 -17 77 -21 28 -4 51 -11 51 -15 0 -5 -11 -20 -24 -34 -17 -19 -34
-26 -60 -26 -20 0 -36 5 -36 10 0 6 13 10 29 10 37 0 49 16 18 24 -37 10 -68
7 -95 -10 -22 -13 -32 -13 -57 -3 l-30 11 30 14 c28 13 25 13 -37 7 -65 -5
-68 -5 -68 16 0 13 -6 21 -18 21 -9 0 -34 9 -55 20 -20 11 -46 20 -56 20 -26
0 -51 10 -51 21 0 14 72 11 126 -5z m104 -266 c11 -7 7 -10 -17 -10 -18 0 -33
5 -33 10 0 13 30 13 50 0z m66 -39 c-3 -5 -15 -7 -26 -4 -28 7 -25 13 6 13 14
0 23 -4 20 -9z m524 -31 c0 -5 -9 -10 -20 -10 -11 0 -20 5 -20 10 0 6 9 10 20
10 11 0 20 -4 20 -10z m26 -40 c13 0 24 -4 24 -10 0 -5 -22 -10 -50 -10 -27 0
-50 4 -50 9 0 12 21 21 38 15 8 -2 25 -4 38 -4z m-8551 -39 c14 -6 0 -10 -50
-15 -116 -12 -266 -50 -597 -151 -121 -37 -156 -47 -203 -57 -27 -5 -57 -14
-66 -18 -23 -13 -244 -40 -314 -39 l-60 1 65 14 c36 8 99 20 140 28 41 8 99
22 128 30 28 9 75 23 102 31 28 8 71 22 98 30 124 38 190 56 222 62 19 3 43
10 53 15 10 5 39 13 65 18 26 5 85 16 132 26 171 34 246 40 285 25z m7475 -1
c51 -7 90 -15 300 -57 41 -8 104 -20 140 -27 36 -8 72 -16 80 -19 8 -3 69 -22
135 -42 66 -20 129 -41 140 -45 59 -24 92 -33 275 -73 51 -11 52 -12 21 -15
-39 -4 -268 26 -291 38 -8 4 -34 11 -57 15 -24 4 -45 10 -48 15 -3 5 -24 11
-48 15 -23 4 -46 11 -52 15 -5 4 -26 11 -45 15 -40 8 -125 33 -155 45 -11 4
-49 15 -85 23 -111 26 -243 58 -281 68 -20 5 -54 9 -75 9 -22 0 -64 3 -94 7
l-55 8 40 6 c56 9 92 9 155 -1z m-3116 -76 c4 -9 4 -19 2 -22 -10 -9 -36 8
-36 23 0 20 26 19 34 -1z m-741 -109 c-6 -17 -25 -15 -31 3 -2 7 5 12 17 12
14 0 19 -5 14 -15z m-5505 -25 c6 0 12 -5 12 -11 0 -6 -7 -8 -16 -5 -25 10
-61 -4 -72 -27 -9 -18 -11 -19 -11 -5 -1 28 31 60 54 54 11 -3 26 -6 33 -6z
m1782 1 c0 -10 -69 -23 -82 -15 -4 3 -6 10 -3 15 8 11 85 12 85 0z m7670 -1
c0 -5 -20 -10 -45 -10 -25 0 -45 5 -45 10 0 6 20 10 45 10 25 0 45 -4 45 -10z
m1703 -14 c9 -7 17 -19 17 -27 -1 -10 -4 -9 -14 3 -7 10 -31 22 -52 27 l-39 9
35 1 c19 0 43 -6 53 -13z m-9488 -16 c4 -6 -7 -10 -27 -10 -25 0 -29 3 -18 10
19 13 37 13 45 0z m7870 0 c4 -6 -5 -10 -20 -10 -15 0 -24 4 -20 10 3 6 12 10
20 10 8 0 17 -4 20 -10z m90 -29 c3 -5 1 -12 -4 -15 -13 -8 -42 4 -35 15 7 12
31 12 39 0z m1405 -23 c0 -5 10 -21 23 -34 29 -31 70 -31 95 1 25 31 32 31 32
1 0 -66 -102 -74 -152 -12 -19 22 -25 71 -8 61 6 -3 10 -11 10 -17z m-10980
-22 c0 -29 -43 -66 -76 -66 -22 0 -74 42 -74 60 0 21 18 17 28 -5 9 -20 19
-25 48 -25 31 0 37 4 47 30 14 36 27 39 27 6z m9665 13 c11 -16 -1 -22 -30
-15 -14 4 -23 11 -20 16 8 13 42 13 50 -1z m59 -25 c9 -3 16 -10 16 -15 0 -14
-24 -11 -46 6 -16 12 -17 14 -2 15 9 0 23 -3 32 -6z m77 -34 c6 0 8 -4 5 -9
-8 -12 -46 -2 -46 11 0 6 7 7 16 4 9 -3 20 -6 25 -6z m-8851 -29 c0 -11 -67
-22 -88 -13 -13 5 -10 8 13 13 45 10 75 10 75 0z m9224 0 c16 -6 17 -9 5 -13
-20 -8 -69 2 -69 13 0 11 37 11 64 0z m-3474 -211 c0 -5 -15 -10 -32 -10 -25
0 -29 3 -18 10 20 13 50 13 50 0z m-80 -29 c0 -11 -39 -21 -45 -11 -2 4 -2 10
2 14 10 9 43 7 43 -3z m-89 -36 c0 -5 -9 -11 -21 -13 -20 -3 -27 8 -13 22 10
9 34 3 34 -9z m-4006 -25 c4 -6 -5 -10 -19 -10 -14 0 -26 5 -26 10 0 6 9 10
19 10 11 0 23 -4 26 -10z m-2223 -7 c4 -11 114 -85 163 -111 136 -71 277 -103
536 -118 103 -6 141 -15 126 -30 -11 -11 -252 -7 -352 6 -116 14 -169 31 -282
87 -106 52 -248 173 -204 173 5 0 11 -3 13 -7z m8186 0 c-15 -2 -42 -2 -60 0
-18 2 -6 4 27 4 33 0 48 -2 33 -4z m2225 -31 c-41 -56 -141 -127 -233 -165
-126 -52 -284 -77 -485 -77 l-120 1 35 19 c20 11 66 21 110 25 255 20 417 53
522 106 48 24 122 75 138 94 7 8 19 15 26 15 8 0 14 5 14 12 0 6 3 8 7 5 4 -4
-2 -20 -14 -35z m-7627 -211 c-3 -5 -15 -7 -26 -4 -28 7 -25 13 6 13 14 0 23
-4 20 -9z m4919 -1 c-27 -12 -35 -12 -35 0 0 6 12 10 28 9 24 0 25 -1 7 -9z
m-4836 -26 c2 -2 -10 -4 -27 -4 -18 0 -32 5 -32 10 0 9 47 4 59 -6z m4777 1
c-11 -8 -27 -15 -36 -15 -9 0 -31 -7 -49 -16 -23 -12 -36 -13 -43 -6 -8 8 -2
13 18 17 16 3 40 13 54 20 14 8 36 14 50 14 24 0 24 0 6 -14z m-4966 -98 c49
-18 173 -80 245 -122 61 -35 78 -43 105 -52 12 -4 12 -7 -4 -19 -40 -29 -76
-16 -206 71 -109 73 -208 115 -271 115 -29 0 -44 12 -31 25 10 10 120 -2 162
-18z m5245 14 c16 -7 11 -10 -25 -16 -24 -4 -51 -11 -60 -16 -8 -5 -32 -15
-54 -24 -21 -8 -79 -39 -130 -69 -50 -30 -114 -64 -142 -75 -59 -23 -122 -31
-125 -16 -3 14 348 188 419 207 65 18 88 20 117 9z m-6784 -79 c-15 -28 -14
-29 10 -35 19 -5 14 -13 -49 -79 -39 -40 -86 -93 -105 -118 -66 -87 -127 -249
-127 -338 0 -63 -17 -70 -23 -11 -10 82 15 233 48 306 8 17 15 34 15 38 0 4
16 31 36 60 73 110 240 262 195 177z m2788 -26 l22 -23 -59 -6 c-32 -4 -74
-13 -95 -22 -38 -16 -117 -21 -117 -7 0 7 67 33 136 51 17 4 39 13 50 19 28
17 38 15 63 -12z m5403 3 c20 13 26 9 82 -52 34 -36 66 -71 71 -79 18 -24 75
-139 75 -151 0 -7 7 -25 16 -42 20 -36 31 -222 17 -275 -10 -33 -10 -32 -17
35 -8 93 -32 188 -64 255 -42 90 -79 137 -184 240 -83 80 -97 103 -48 73 26
-15 33 -16 52 -4z m-2643 -24 c14 -7 41 -16 59 -20 17 -3 32 -11 32 -16 0 -14
-42 -11 -90 6 -23 8 -77 18 -121 21 -76 7 -90 15 -44 27 31 9 136 -3 164 -18z
m-4740 -24 c10 -6 -5 -11 -45 -16 -32 -3 -71 -13 -86 -21 -14 -7 -32 -14 -40
-14 -47 0 -286 -151 -384 -242 -82 -77 -179 -224 -198 -300 -3 -16 -11 -28
-18 -28 -7 0 -9 20 -6 63 4 48 14 76 43 125 44 73 174 200 273 266 97 64 265
146 301 146 10 0 32 7 47 15 32 17 91 20 113 6z m6670 -7 c12 -11 -12 -15 -50
-9 -29 5 -38 10 -28 16 12 8 67 3 78 -7z m-4965 -23 c3 -5 -8 -11 -25 -15 -39
-7 -64 5 -29 15 36 10 48 10 54 0z m3215 -7 c2 -2 -12 -4 -33 -4 -22 0 -35 4
-31 10 5 9 52 4 64 -6z m1835 1 c8 -8 21 -15 29 -15 8 0 47 -16 86 -35 180
-89 338 -218 410 -334 35 -58 76 -209 65 -243 -8 -28 -24 -5 -24 37 0 17 -7
39 -15 49 -8 11 -15 25 -15 32 0 33 -83 148 -165 229 -81 81 -246 205 -272
205 -6 0 -16 7 -23 15 -7 8 -20 15 -30 15 -10 0 -23 7 -30 15 -7 8 -22 15 -34
15 -12 0 -31 7 -42 15 -18 14 -17 14 13 15 17 0 38 -7 47 -15z m-5226 -35
c-21 -4 -55 -4 -75 0 -30 6 -22 8 37 8 59 0 67 -2 38 -8z m3560 3 c-16 -2 -40
-2 -55 0 -16 2 -3 4 27 4 30 0 43 -2 28 -4z m-7256 -48 c10 -4 12 -38 10 -155
l-2 -149 26 -17 c33 -22 16 -34 -48 -34 -51 0 -66 11 -43 30 22 19 22 282 0
300 -13 11 -13 15 -3 21 15 10 40 11 60 4z m175 -6 c6 -6 9 -17 6 -24 -3 -10
-11 -10 -33 3 -19 11 -25 19 -17 24 17 11 31 10 44 -3z m396 2 c15 -6 13 -9
-17 -24 -34 -16 -36 -16 -36 1 0 31 16 38 53 23z m129 -142 c-4 -130 -2 -144
16 -169 26 -34 20 -40 -33 -40 -50 0 -60 8 -39 31 13 14 15 42 12 168 -3 127
-1 151 12 154 33 7 35 -3 32 -144z m147 137 c18 -22 -5 -30 -40 -15 -22 9 -27
14 -17 20 20 13 44 11 57 -5z m9330 -27 c57 -57 33 -124 -78 -222 -42 -37 -39
-22 11 49 37 52 42 65 42 116 1 46 -3 60 -19 72 -17 13 -18 15 -3 16 9 0 30
-14 47 -31z m501 14 c14 -9 28 -22 32 -27 14 -20 8 -91 -8 -116 -23 -34 -86
-100 -96 -100 -10 0 -11 27 0 32 13 6 49 62 62 99 15 42 8 81 -20 109 -25 25
-4 27 30 3z m-10370 -44 c0 -46 8 -55 79 -91 56 -29 84 -71 77 -118 -6 -36
-38 -69 -68 -70 -14 0 -13 4 7 25 45 44 26 87 -61 137 -71 39 -89 73 -69 122
20 48 35 46 35 -5z m140 19 c0 -16 -3 -19 -11 -11 -6 6 -8 16 -5 22 11 17 16
13 16 -11z m9860 -22 c-12 -24 -9 -192 5 -236 l8 -25 -22 23 c-12 12 -29 46
-38 75 -13 44 -13 60 -3 102 14 52 52 114 58 95 3 -7 -1 -22 -8 -34z m149 -35
c23 -79 7 -164 -38 -205 -22 -20 -30 -9 -9 12 17 17 16 234 0 240 -7 2 -12 11
-12 20 0 28 46 -24 59 -67z m-418 -15 c12 -13 12 -26 0 -26 -34 0 -55 72 -28
99 10 10 13 5 15 -26 2 -21 8 -42 13 -47z m519 73 c0 -6 -5 -19 -11 -30 -8
-16 -7 -25 5 -38 19 -21 20 -31 5 -31 -32 0 -51 68 -26 95 14 17 27 19 27 4z
m382 -91 c2 -81 6 -103 17 -103 8 0 16 -6 19 -12 2 -8 -5 -13 -17 -13 -15 0
-21 -6 -21 -23 0 -13 5 -28 11 -34 17 -17 2 -33 -31 -33 -32 0 -47 15 -32 33
5 7 10 70 11 141 2 136 4 146 26 146 11 0 15 -22 17 -102z m-10842 -28 c0 -23
-25 -27 -33 -6 -7 16 1 26 20 26 7 0 13 -9 13 -20z m5206 -47 c-11 -11 -17 4
-9 23 7 18 8 18 11 1 2 -10 1 -21 -2 -24z m-2138 20 c-10 -2 -26 -2 -35 0 -10
3 -2 5 17 5 19 0 27 -2 18 -5z m-2958 -148 c-14 -17 -56 -20 -65 -5 -3 6 5 14
18 19 13 5 28 18 32 28 7 17 8 16 17 -4 8 -17 7 -27 -2 -38z m70 29 c0 -16
-16 -19 -25 -4 -8 13 4 32 16 25 5 -4 9 -13 9 -21z m668 -8 c2 -10 -1 -23 -7
-29 -15 -15 -46 16 -37 38 8 21 40 15 44 -9z m9188 -2 c50 6 55 4 52 -11 -3
-15 -17 -18 -96 -21 -74 -2 -92 0 -92 11 0 8 10 21 23 30 20 13 24 13 39 0 14
-12 30 -14 74 -9z m440 5 c4 -8 29 -10 71 -6 56 4 64 3 61 -12 -3 -13 -19 -17
-87 -19 -105 -4 -120 1 -96 28 20 22 40 26 51 9z m-5736 -109 c0 -5 -16 -12
-35 -16 -19 -3 -38 -10 -41 -15 -3 -5 -13 -9 -22 -9 -10 0 -4 9 18 25 34 25
80 34 80 15z m1562 -131 c9 -5 27 -9 40 -9 13 0 75 -13 138 -29 63 -16 135
-32 159 -36 36 -6 41 -9 27 -17 -23 -13 -103 -1 -191 27 -38 12 -95 25 -126
29 -31 3 -69 13 -85 21 -16 8 -37 15 -46 15 -10 0 -18 5 -18 10 0 11 74 3 102
-11z m-5347 -104 c45 -45 48 -101 10 -157 -57 -84 -202 -54 -221 46 -15 82 40
146 128 146 41 0 52 -5 83 -35z m8941 1 c29 -29 34 -41 34 -81 0 -57 -10 -77
-54 -104 -75 -47 -165 -9 -182 76 -9 46 2 81 36 114 24 25 37 29 80 29 46 0
56 -4 86 -34z"/>
<path d="M6100 7420 c-12 -8 -12 -10 2 -15 24 -9 61 -2 66 13 4 14 -45 17 -68
2z"/>
<path d="M12481 6626 c-17 -18 -19 -26 -10 -31 7 -5 17 -1 24 8 7 10 17 17 24
17 6 0 11 7 11 15 0 22 -24 18 -49 -9z"/>
<path d="M7565 6910 c-4 -6 5 -10 19 -10 14 0 26 5 26 10 0 6 -9 10 -19 10
-11 0 -23 -4 -26 -10z"/>
<path d="M6540 6700 c0 -19 3 -21 12 -12 9 9 9 15 0 24 -9 9 -12 7 -12 -12z"/>
<path d="M8335 6611 c-6 -11 9 -23 19 -14 9 9 7 23 -3 23 -6 0 -12 -4 -16 -9z"/>
<path d="M8620 6365 c-14 -16 -10 -18 14 -9 9 3 16 10 16 15 0 14 -16 11 -30
-6z"/>
<path d="M5820 6028 l-21 -23 22 -17 c28 -24 42 -23 27 2 -10 15 -10 22 0 32
6 6 12 16 12 20 0 15 -19 8 -40 -14z"/>
<path d="M5756 5742 c-3 -6 -1 -14 5 -17 15 -10 25 3 12 16 -7 7 -13 7 -17 1z"/>
<path d="M8996 5741 c-8 -13 4 -42 15 -35 12 7 12 44 0 44 -6 0 -12 -4 -15 -9z"/>
<path d="M5722 5329 c1 -13 8 -23 13 -21 15 3 12 35 -3 40 -9 3 -13 -3 -10
-19z"/>
<path d="M8895 5126 c-11 -8 -16 -20 -12 -30 10 -25 24 -19 30 12 6 34 5 35
-18 18z"/>
<path d="M8782 4929 c2 -6 8 -10 13 -10 5 0 11 4 13 10 2 6 -4 11 -13 11 -9 0
-15 -5 -13 -11z"/>
<path d="M8805 4870 c-4 -7 -3 -16 3 -22 14 -14 45 -2 40 15 -6 16 -34 21 -43
7z"/>
<path d="M6110 4535 c0 -8 5 -15 10 -15 6 0 10 7 10 15 0 8 -4 15 -10 15 -5 0
-10 -7 -10 -15z"/>
<path d="M8593 4524 l-21 -24 29 0 c22 0 29 5 29 19 0 30 -13 32 -37 5z"/>
<path d="M6176 4513 c-8 -34 0 -61 14 -46 5 4 5 24 1 43 l-8 35 -7 -32z"/>
<path d="M6172 4427 c-15 -18 -3 -57 17 -57 14 0 17 7 13 30 -5 36 -16 45 -30
27z"/>
<path d="M6325 4329 c-10 -15 3 -25 16 -12 7 7 7 13 1 17 -6 3 -14 1 -17 -5z"/>
<path d="M8310 4270 c0 -15 7 -20 25 -20 28 0 34 24 9 34 -26 10 -34 7 -34
-14z"/>
<path d="M8230 4220 c-20 -15 -21 -20 -8 -20 9 0 20 5 23 10 3 6 15 10 25 10
10 0 22 5 25 10 11 18 -39 10 -65 -10z"/>
<path d="M8153 4174 c-3 -8 -16 -20 -29 -25 -13 -4 -24 -16 -24 -26 1 -17 1
-17 11 0 6 10 22 17 38 17 26 0 41 15 41 41 0 15 -30 10 -37 -7z"/>
<path d="M6710 4080 c0 -5 7 -10 15 -10 8 0 15 5 15 10 0 6 -7 10 -15 10 -8 0
-15 -4 -15 -10z"/>
<path d="M7435 4020 c-3 -5 -3 -30 1 -55 5 -39 10 -45 30 -45 15 0 24 6 24 15
0 8 -7 15 -15 15 -10 0 -15 10 -15 34 0 35 -13 55 -25 36z"/>
<path d="M7107 4003 c-12 -11 -8 -21 13 -26 24 -6 38 12 19 24 -17 11 -24 11
-32 2z"/>
<path d="M3102 4843 c-6 -2 -10 -9 -6 -14 7 -12 101 -12 108 0 10 16 -69 27
-102 14z"/>
<path d="M3487 4844 c-10 -10 2 -24 20 -24 9 0 24 -6 32 -13 9 -7 49 -24 89
-36 40 -13 75 -27 78 -32 3 -5 14 -9 25 -9 11 0 34 -7 50 -16 17 -8 38 -13 47
-9 26 10 -21 40 -103 66 -38 12 -79 28 -90 36 -11 7 -31 13 -45 13 -14 0 -34
7 -44 15 -21 16 -48 20 -59 9z"/>
<path d="M11186 4835 c-3 -9 -18 -15 -34 -15 -16 0 -35 -7 -42 -15 -11 -13 -7
-15 29 -15 28 0 44 5 47 15 4 8 18 15 34 15 42 0 65 10 48 21 -22 14 -75 10
-82 -6z"/>
<path d="M2990 4800 c0 -5 9 -10 19 -10 11 0 23 5 26 10 4 6 -5 10 -19 10 -14
0 -26 -4 -26 -10z"/>
<path d="M11690 4800 c0 -5 15 -10 34 -10 19 0 38 5 41 10 4 6 -10 10 -34 10
-23 0 -41 -4 -41 -10z"/>
<path d="M11050 4770 c0 -5 9 -10 19 -10 11 0 23 5 26 10 4 6 -5 10 -19 10
-14 0 -26 -4 -26 -10z"/>
<path d="M2567 4154 c-9 -10 2 -24 19 -24 8 0 14 7 14 15 0 15 -21 21 -33 9z"/>
<path d="M5093 3524 c29 -34 124 -106 160 -122 89 -39 235 -71 251 -55 11 12
-17 33 -43 33 -14 0 -39 7 -55 15 -15 8 -32 15 -36 15 -12 0 -166 74 -228 110
-65 37 -79 38 -49 4z"/>
<path d="M5302 3518 c3 -7 14 -14 26 -16 11 -2 26 -10 32 -18 7 -8 20 -14 29
-14 10 0 26 -7 37 -15 10 -8 29 -15 42 -15 13 0 33 -5 45 -12 12 -7 45 -15 72
-19 28 -3 59 -10 70 -14 11 -4 3 4 -18 19 -21 14 -46 26 -55 26 -10 0 -26 6
-37 13 -11 7 -47 21 -80 31 -33 10 -75 24 -93 32 -41 17 -75 18 -70 2z"/>
<path d="M9590 3512 c0 -10 41 -35 47 -28 7 7 -23 36 -36 36 -6 0 -11 -3 -11
-8z"/>
<path d="M9326 3485 c-8 -8 -28 -15 -44 -15 -16 0 -35 -6 -42 -14 -6 -8 -25
-16 -42 -18 -18 -2 -33 -9 -36 -15 -6 -19 63 -17 78 2 7 8 26 15 42 15 16 0
31 6 34 14 3 8 17 17 30 20 14 4 22 11 19 16 -9 14 -21 12 -39 -5z"/>
<path d="M9781 3491 c-11 -7 -9 -10 8 -16 24 -7 61 2 61 16 0 11 -50 12 -69 0z"/>
<path d="M9530 3476 c0 -9 -7 -16 -16 -16 -9 0 -49 -15 -89 -34 -39 -19 -85
-38 -101 -42 -16 -4 -40 -18 -54 -32 l-25 -25 30 7 c17 3 46 9 65 12 94 14
202 55 250 93 29 23 21 35 -27 46 -26 5 -33 3 -33 -9z"/>
<path d="M7614 2906 c-10 -25 2 -180 17 -216 25 -63 71 -134 107 -167 58 -53
70 -41 25 24 -51 72 -93 152 -93 177 0 6 -7 29 -15 51 -8 22 -14 61 -15 87 0
47 -15 72 -26 44z"/>
<path d="M7495 2710 c-4 -6 -3 -16 3 -22 6 -6 12 -6 17 2 4 6 3 16 -3 22 -6 6
-12 6 -17 -2z"/>
<path d="M2836 2089 c-34 -40 -34 -81 0 -108 26 -21 76 -27 109 -15 19 8 45
55 45 85 0 37 -40 69 -87 69 -34 0 -46 -5 -67 -31z"/>
<path d="M11776 2089 c-30 -36 -32 -51 -9 -90 25 -41 62 -54 106 -36 62 27 76
85 29 130 -40 39 -92 37 -126 -4z"/>
<path d="M9076 273 c-3 -10 -9 -24 -12 -31 -5 -10 0 -10 20 0 15 6 25 18 24
26 -4 23 -25 25 -32 5z"/>
<path d="M8135 160 c-3 -5 -4 -10 -1 -10 2 0 11 -3 20 -6 11 -4 16 -1 16 10 0
18 -25 22 -35 6z"/>
</g>
</svg>
